<?xml version="1.0" encoding="utf-8"?>
<!-- Generator: Adobe Illustrator 16.0.0, SVG Export Plug-In . SVG Version: 6.00 Build 0)  -->
<!DOCTYPE svg PUBLIC "-//W3C//DTD SVG 1.1//EN" "http://www.w3.org/Graphics/SVG/1.1/DTD/svg11.dtd">
<svg version="1.1" id="Layer_1" xmlns="http://www.w3.org/2000/svg" xmlns:xlink="http://www.w3.org/1999/xlink" x="0px" y="0px"
	 width="425.5px" height="425.5px" viewBox="0 -25.5 425.5 425.5" enable-background="new 0 -25.5 425.5 425.5"
	 xml:space="preserve">
<g>
	<g>
		<g>
			<path fill="#030311" d="M330.1,143.5c0,0.1,0,0.2,0,0.3c-0.1,0.7-0.3,1.4-0.399,2.1c-0.2,0.6-0.4,1.2-0.5,1.7l0,0
				c-0.8,2.1-1.7,4-2.5,6.1c-0.101,0.4-0.3,0.8-0.4,1.3c-1.6,4.8-3.399,9.3-5.399,13.6c0,0.1-0.101,0.2-0.101,0.3
				c-0.3,0.6-0.5,1.1-0.8,1.7c-3.3,5.9-5.2,13.1-7.6,19.9l0,0c-1.601,4.6-3.4,8.9-5.9,12.6c-1,1.4-1.9,2.801-2.8,4.2
				c-3,4.601-5.7,9.601-7.601,15.4l0,0c-3.899,11.7-9.6,21.5-14.1,32.399l0,0c-0.8,2-1.6,4-2.3,6c3.2,5.5,5.3,2,7-2.199
				c4.5-11,8.8-22.101,13.399-33c1.2-2.9,2.2-6.801,4.801-7h0.1c0.3,0,0.6,0,1,0.1c0.3,0.4,0.5,0.8,0.6,1.3l0,0
				c0.301,0.9,0.301,2,0.301,3.2c-0.2,5.3-0.7,10.5-1.2,15.8l0,0c-0.2,2.101-0.4,4.2-0.601,6.2c-0.6,7.2-3,13.4-7.699,16.3
				c-0.101-0.2-0.301-0.399-0.4-0.7c-0.2-0.199-0.3-0.5-0.5-0.699c-1.2-1.7-2.2-2-3.1,2.399c-0.101,0.7-0.301,1.3-0.5,2
				c-0.601,2-1.5,3.8-2.4,5.7c-1.6,3.2-3.2,6.5-3.5,10.8c0,0.101,0,0.101,0,0.2c-1.4,3.5-2.6,6.5-5.5,8.1
				c-0.2,0.101-0.4,0.2-0.6,0.301c-4,2.5-7.5,7-9.801,13.3c-0.1,0.399-0.3,0.8-0.5,1.2c-0.5,1.1-1.1,2.3-1.8,2.6
				c-0.399,0.2-0.899,0.1-1.399-0.3c-1.5-1.2-0.4-4-0.101-6.101c0.7-4.6,1.4-9.1,3-13.3c0.9-2.3,1.4-6.1-0.2-7.6
				c-1.699-1.601-2.5,2.1-3.399,3.899c-3.601,7.2-6.2,16.801-10.9,21.2c-6.6,6.4-8,18.4-13.6,25.2c-1.3,1.6-0.3,3.6-0.2,5.4
				c-2.1,5-3.2,11-5.9,15.399c-1.3,2.101-2.1,5.3-4.6,4.2c-3.8-1.2-3.7-5.1-2.3-9.4c1.5-5,3.3-9.699,4.899-14.6
				c0.601-1.8,0.9-4-0.3-5.3c-1.3-1.4-2.2,0.2-3.1,1.7c-1.601,2.8-2,7.699-5.3,7.5l0,0l0,0c-1.9-8.4,1.699-14.301,3.699-21
				c1-2.101,2-4.2,3-6.301c1-2.199,2-4.399,3-6.6c2.101-4.7,4.2-9.5,6.2-14.4l0,0c1-2.399,1.9-4.899,2.9-7.399l0,0
				c0.7-1.8,1.3-3.5,1.899-5.3c0.2-0.4,0.4-0.801,0.601-1.2l0,0c5.1-9.9,10.7-19.101,16.3-28.3c1.8-2.9,3.6-5.801,5.3-8.801
				c9.3-15.399,18.601-30.6,27.9-46.1c0.1-0.2,0.2-0.3,0.3-0.4c0.3-0.5,0.7-1,1.1-1.5c0.101-0.2,0.2-0.3,0.301-0.5
				c0.3-0.4,0.5-0.8,0.8-1.1l0,0c0.5-0.8,1-1.5,1.5-2.3l0,0c7.899-12.2,14.8-26,22.899-38c1.801-2.7,3.301-6.8,6.5-5.6
				c0,0.1,0.101,0.1,0.101,0.2c0,0,0,0.1,0.1,0.1C330,141.3,330.1,142.3,330.1,143.5z"/>
			<path fill="#0959C0" d="M292.3-9.2c0.3-0.1,0.5,0,0.601,0.3c2.399,2.5,4.399,5.5,6.1,9.1c8.5,18.4,17.8,35.8,25.3,55.4
				c2.5,6.5,4.101,13.5,6.101,20.3c0.699,2.5,1.3,5.2,0.1,7.9c-0.9,1.1-1.9,1.3-3,1c-8-7.1-15.6-15.2-23.5-22.7
				c-5.9-5.6-11.7-11.5-17.5-17.2c-1.5-1.8-3.1-3.6-4.7-5.1c-1.399-1.6-2.899-2.7-4.399-3.8c-3.2-3.9-7.801-5-9.5-12
				c0-3.7,1.5-5.3,3.5-5.9c4,0.4,6.8,4.6,9.6,8.2c5.8,7.4,12.2,13.3,18.7,21.6c-0.3-5.9-1.8-9.9-2.9-14c-1.3-4.9-3.399-9.2-4.5-14.2
				c-1.6-7.2-4.1-12.7-8.899-14.9C282.8-1.1,285.6-3.5,288.1-6C289.3-7.3,291-7.6,292.3-9.2z"/>
			<path fill="#7C1914" d="M235.3,296.2c0,1.7-0.1,3.3-0.399,4.8c-1,5.2-3.601,9.3-4.7,14.3l0,0c-1.7,6.5-3.4,13-5,19.601l0,0l0,0
				c-0.4,1.1-0.9,2.199-1.3,3.3c-3.301-2.3-3-7-3.101-11.4c-0.3-14.7-0.2-29.399-0.399-44.1c-0.2-14.3-0.9-28.5-1.7-42.8
				c-0.3-4.601-0.601-9.2-0.8-13.801c0-0.199,0-0.399,0-0.6c-0.101-1.1-0.2-2.1-0.2-3.2c0.1-1.6,0-3.2,0-4.7
				c0-2.399,0.1-4.699,0-6.699c-0.2,2.1-0.101,4.3,0,6.699c0,1.5,0,3.101,0,4.7c-0.101,1.7-0.3,3.5-0.7,5.2
				c-0.2,0.2-0.3,0.4-0.5,0.5c0,0-0.1,0-0.1,0.1c-0.2,0.101-0.4,0.2-0.7,0.301H215.6c-0.1,0-0.199,0-0.3,0
				c-0.2,0-0.399-0.101-0.5-0.2l0,0c-0.1,0-0.2-0.101-0.2-0.101c-0.3-0.199-0.6-0.6-0.8-1c-1.8-6.899-0.5-14-0.8-21
				c1.3-7.199,0.9-14.6,1.2-21.899c0.2-0.9,0.399-1.9,0.5-2.8c0.1-1,0.2-2.1,0.3-3.2l0,0c0-0.2,0-0.3,0-0.5v-0.1
				c0.1-1.3,0.1-2.6,0.1-4c0-1.7,0.2-3.3,0.7-4.5c0.5-1.3,1.3-2.2,2.7-2.4c0,0,0,0,0.1,0l0.101,0.1c3.1,4.9,2.5,11.7,3.7,17.6
				c0,0.2,0.1,0.4,0.1,0.6s0,0.4,0.1,0.6c1.2,10.1,3.2,19.9,3.4,30.3c0,0.8,0,1.6,0,2.399s0.3,1.5,0.7,2.3
				c0.2,0.4,0.399,0.9,0.6,1.301c1.4,11.8,1.7,24,3.9,35.5c0.1,0.399,0.2,0.8,0.2,1.199c0,0.101,0.1,0.301,0.1,0.4s0,0.1,0,0.2
				c0.1,0.2,0.1,0.399,0.1,0.7c0.101,0.399,0.101,0.8,0.2,1.3c0.8,10.2,1.3,20.5,2.9,30.399c0.2,1,0.3,2,0.5,2.9
				C235.1,295.1,235.2,295.7,235.3,296.2z"/>
			<path fill="#0389C4" d="M330.2,84c-3.8-20-11.101-36.9-18.9-53.4c-6.2-13-13-25.4-18.3-39.4c1.1,0,2.2-0.1,3.3-0.1
				c3.5,2.4,7.5,2.4,11.101,4.8c3.1,2.1,4.199-2.5,6-4.8c0.3-0.3,0.699-0.3,1,0.1c2,4,3,8.9,4.1,13.6c1.5,8.2,4.3,15.5,6.9,23
				c5.5,19,10.5,38.3,17,56.5c0.8,3.9,2.8,7.9,0,11.8C336.8,95.6,332.5,92.2,330.2,84z"/>
			<path fill="#851711" d="M139.8,214.1c-10-16.199-19.9-32.399-29.9-48.6c-8.6-5.1-14.3-19.7-12.3-31.6c0.2-0.2,0.3-0.4,0.5-0.6
				c0.1-0.1,0.2-0.2,0.2-0.3c1.8-1.7,3.4-0.2,5,1.3c1.4,1.2,2.5,3.1,3.8,4.5c1.3,1.5,2.7,3,4.3,1.1c1.4-1.8,0.5-4.1,0.1-6.1
				c-0.9-4.8-2.8-8.9-4.1-13.4c-1-3.4-2.7-6.8-0.6-10.7c0,0,0.1,0,0.1-0.1c0,0,0.1,0,0.2,0c1.3-0.4,2.3,0.5,2.9,2.1
				c4.2,10.4,8.9,20.3,12.2,31.5c0,0.2,0,0.4,0,0.5c0,0.8,0,1.6,0,2.4c0.5,10.3,4.8,18,8.2,26.1c3.5,8.4,6.5,17.2,9.9,25.6
				C142.3,203.2,142.7,208.9,139.8,214.1z"/>
			<path fill="#030318" d="M112,194.3c-2,1.3-3.3,0.3-4.4-1.2c-1-1.399-1.8-3.399-2.8-4.6c-0.1-0.3-0.2-0.6-0.3-0.9
				c0-0.1,0-0.1-0.1-0.2c-0.3-0.8-0.7-1.6-1-2.5c-3.7-9.2-7.4-18.5-11.3-27.5c-0.1-0.3-0.3-0.7-0.4-1c-0.1-0.3-0.2-0.6-0.3-0.9
				c-2.6-7.7-6.3-14.3-9-22c-1.1-3.1-2.7-6-1.6-9.9c0,0,0,0,0.1,0c4.9-2.4,4.9-2.5,3.5-10.9c-0.4-2.6-0.8-5.1-0.3-7.5v-0.1
				c0.1-0.3,0.1-0.5,0.2-0.8c0-0.2,0.1-0.3,0.2-0.5c0.1-0.2,0.1-0.3,0.2-0.5c0.4-0.7,0.8-1.2,1.3-1.6c2.3-1.5,4.6-1.4,6.9,0.3
				c0.6,0.6,1.1,1.3,1.5,2c0.3,0.5,0.5,0.9,0.6,1.4c0.8,2.1,1.1,4.5,1.4,7c0.2,1.2,0.3,2.4,0.6,3.6c0.1,0.7,0.3,1.4,0.5,2.1
				c0.6,5,2,9.9,0.7,15.1c0,0.2-0.1,0.4-0.2,0.6c-0.7,14.9,7,22,11.8,31.9c-2.3,0.8-1.9,3.1-1.4,5.7
				C109.7,178.9,110.8,186.6,112,194.3z"/>
			<path fill="#4EB4B9" d="M345.3,28.5c1.7-0.8,2.601,1.2,3.7,2.4c20.4,23.1,40.8,46.1,61.2,69.3c0.7,0.8,1.2,2,1.7,3
				c-1.7,2.6-3.9,3.1-6.101,3.3c-3.6-0.7-7.3,0.9-10.899-0.6c-1.2-0.1-2.2-0.7-3.2-1.8c-2.8-3.9-5.7-7.8-8.2-12.2
				c-0.8-1.4-1.6-2.8-2.4-4.2c-3.6-6.1-8.3-10.4-11.5-17c-1.399-1.9-2.699-4.1-4.1-6c-1.2-1.7-2.2-3.8-3.5-5.4c-2-3.1-4-6.3-5.9-9.4
				c-1.199-1.7-2.199-3.6-3.399-5.4c-1-1.9-2.3-3.5-3.4-5.3c-0.899-1.7-2-3-2.899-4.7C345.7,32.8,344.7,31.1,345.3,28.5z"/>
			<path fill="#220B0A" d="M218.4,166.9c0,0.1-0.101,0.2-0.101,0.3c-3.6,4.4-0.3,11.7-2.8,16.6c-0.5-1.4-0.7-2.9-0.8-4.3
				c0-0.6,0-1.2,0-1.7v-0.1c0-0.5,0-1,0-1.5c0.1-2.9,0.399-5.7,0.1-8c-0.1,2.6-0.1,5.3-0.1,8c0,0.7-0.101,1.4,0,2l0,0
				c0,0.4,0,0.8,0,1.2c0.1,8.4,0.3,17.3-0.3,26.1c0,7.3,0,14.7,0,22c0.1,0.3,0.199,0.5,0.199,0.8l0,0c0.301,1.3,0.601,2.601,0.801,4
				l0,0v0.101l0,0c0.199,1.199,0.3,2.399,0.399,3.5l0,0c0.3,3.6,0.3,7.199,0.2,10.8l0,0c0,0.1,0,0.1,0,0.2l0,0
				c-0.1,4.199-0.5,8.5-0.6,12.6c-0.101,1.9-0.101,3.8-0.2,5.8l0,0c-0.101,3.3-0.3,6.5-0.4,9.8v0.101c0,0.8,0,1.7-0.1,2.5
				c0,0.6,0,1.1,0,1.7v0.3c0,0.2,0,0.5,0,0.7v3.5c0,0,0,0.1,0,0.199c0,0.4,0,0.9,0,1.301v1.199c0,3.7,0,7.4,0,11.101v4.5
				c0,8,0,15.899,0,23.899v2.101v0.1c0,1.5,0,2.9,0,4.4l0,0c0,5.2,0,10.5,0,15.7c0,0.3,0,0.699,0,1c0,4.6,0,9.1,0.1,13.699
				c0,0.601,0,1.101,0,1.7l0,0c0,0.3,0,0.5,0,0.8l0,0c-0.1,1.301-0.2,2.5-0.399,3.801l0,0c-0.4,3.6-0.9,7.1-0.2,10.8
				c-0.5,1.899-1,3.899-1.601,5.8l0,0c-0.199,0.5-0.3,1.1-0.5,1.6c-0.5,1.5-0.899,1.5-1.399,1l-0.3-0.399V388.1
				c-0.2-0.3-0.301-0.699-0.5-1c-0.2-3.5-0.301-6.899-0.4-10.3c-0.1-5.7-0.2-11.399-0.2-17.1l0,0c0-1,0-2.101,0-3.101l0,0
				c0-1.6,0-3.199,0-4.899l0,0c0-2.8,0-5.5,0.101-8.3l0,0c0-0.9,0-1.801,0-2.7l0,0c0-6.2,0.1-12.3,0-18.5c-0.101-3.601,0-7.3,0-10.9
				V176.4c0.1-1.4,0.1-2.8,0.1-4.2l0,0c0-0.6,0-1.1,0-1.7c-0.2-6.4-1-12.8-0.2-19.2c0-0.3,0-0.7,0.101-1c0.1-0.8,0.1-1.6,0.1-2.4
				c0-1.6,0-3.3,0.1-4.9l0,0c0-0.2,0-0.5,0-0.7c0.101-0.3,0.2-0.6,0.2-0.9c1.5-6.6-0.3-14.1,1.9-20.6c0.3,0,0.5,0.1,0.7,0.2
				c0.1,0,0.1,0,0.199,0c3.801,1.5,2.5,7.6,3.5,11.6c0.101,0.4,0.101,0.9,0.2,1.3c0,0.2,0.101,0.4,0.101,0.6
				c0.8,6.5,1.6,13,2.399,19.5c0,0.5,0.101,0.9,0.2,1.4c0,1.3,0.1,2.7,0.2,4l0,0C219.2,161.8,219.3,164.4,218.4,166.9z"/>
			<path fill="#B62115" d="M167.5,259c-9.3-15-18.5-29.9-27.8-44.9c2.2-14.399-4.8-23.399-8.6-33.899c-2.9-7.9-6-15.7-9-23.6
				c-1.4-3.9-1.9-8.3-1.7-12.9c0.6-0.2,1.1-0.2,1.5,0.1c1.1,0.6,1.6,2.4,2.4,3.7c0.1,0.2,0.2,0.4,0.4,0.5c0,0,0,0,0,0.1
				c4.5,12.2,9.8,23.5,14.5,35.5c4.4,11.4,9.2,22.4,13.8,33.6c0.2,0.399,0.3,0.8,0.5,1.2c0.1,0.199,0.1,0.3,0.2,0.5
				c3.9,10.3,8.2,20.1,12.2,30.3C167.3,252.2,169.1,255,167.5,259z"/>
			<path fill="#A21C13" d="M223.8,338.2c-1.399,7.6-2.899,15-5.2,22.1c-2-2-1.699-5.3-1.699-8.3c0-39.2,0-78.4,0-117.6
				c0-2.801,0-5.7,0.8-8.301c0.2-0.699,0.5-1.3,0.8-1.899c2.8,12.2,2.4,25.1,2.9,37.7c0.8,22.1,2,44.3,1.399,66.6
				C222.7,331.8,222.7,335.1,223.8,338.2z"/>
			<path fill="#0F2DA1" d="M82.3,22.5c0.3-0.5,0.7-0.9,1-1.4c1.5,1.4,3.1-1.4,4.6,0.2c2.8,11.1,3.8,23,5.4,34.5
				c0.5,3.5,1.1,7,1.2,10.6c0,1.8,0.4,3.4,0.5,5.2c-0.7,6.4-3,11.7-4.6,17.5c-2,3-4,6-7.2,4.5c-2.2-4-1.8-9-0.2-12.4
				c4.3-8.9,1.9-17.9,1.5-27.3c-2.4,1.5-3.4,6.9-6.5,4.6c-1-1.9-0.4-4-0.5-6.1c1.4-8.8,4.7-16.9,3.7-26.5
				C81.6,24.8,81.9,23.6,82.3,22.5z"/>
			<path fill="#0B5ABE" d="M325.2,3.5c0.7,0.8,1.3,1.5,2,2.3c0.1,2.2,0.7,3.3,2.2,2.5c4.5,5.8,9.899,9.9,13.6,17.3
				c0.8,3.1,0.6,6.5,1,9.7c0.6,2.4,0.8,4.9,0.7,7.4c0,1.3-0.101,2.5-0.4,3.6c-2,4.4-4.1,1.6-5.899-0.3c-3.2-3.3-6.2-7-9.5-10.2
				c-1.4-2.3-1.801-5.4-2.601-8.2c-0.2-0.7-0.399-1.4-0.5-2.1c-0.5-4.4-2.3-8.2-2.7-12.7c-0.1-0.8-0.1-1.6,0-2.3
				C323.5,8,323.2,4.9,325.2,3.5z"/>
			<path fill="#091C4A" d="M397.1,125c-4.899,9.1-11.1,15.9-16.6,24.1c-2,0.8-3,3.6-4.4,5.6c-4.699,6.7-6.699,6.1-9.1-3
				c-0.4-1.5-0.8-3-1-4.7c2.3-10.6,8.1-16.2,13.1-23.1c2.7-1.6,5.7-1.7,7.101,2.1c2.1,5.9,3.7,4.2,5.8,0.5c0.8-1.4,1.8-2.6,3.1-2.8
				C395.8,123.7,396.5,124,397.1,125z"/>
			<path fill="#C04627" d="M218.6,360.3c-0.8,3.7-1.699,7.4-2.5,11.101c-1.1-0.2-1.5-0.9-1.699-1.9l0,0c-0.2-1.2,0-2.7-0.2-3.9
				c0.1-9.1-0.101-18.1,0.1-27.199c0-0.7,0-1.4,0-2.101c0.101-1.899,0.2-3.7,0.3-5.6V330.6c0-0.8,0.101-1.6,0.101-2.399V328.1
				c0-0.5,0-0.899,0-1.399c0.2-8.3,0.1-16.601,0-24.9c0-1.1,0-2.3,0-3.399v-0.9c0-1.2,0-2.5,0-3.7c0-2.8,0-5.7,0-8.5
				c0-0.5,0-0.899,0-1.3c0-0.1,0-0.1,0-0.2c0-0.3,0-0.5,0-0.8c0-0.4,0-0.8,0-1.2c0-2.2,0-4.5,0.1-6.7V275c0-3.1,0.101-6.3,0.101-9.4
				c0.1-5.899,0.199-11.699,0.3-17.6c0.1-2,0.1-4.1,0-6.1c0-0.9,0-1.801-0.101-2.801V239c-0.1-2.3-0.1-4.6,0.2-6.9l0,0
				c0-0.1,0-0.1,0-0.199c0.101-0.601,0.2-1.301,0.3-2c0.101-0.601,0.301-1.301,0.4-1.9c0-0.1,0.1-0.3,0.1-0.4v-25.5
				c3.301,8.4,1.7,15.4,2.301,21.9c0,5.2,0,10.5,0,15.7C218.6,280,218.6,320.1,218.6,360.3z"/>
			<path fill="#CCE774" d="M13,102.1c14.9-17,29.7-33.9,44.6-50.9c1.6,3,1.7,3.2,0.1,5.4c-2.5,3.5-5.1,6.9-6.9,11.4
				C44.3,79.2,36.2,87.2,29,96.9c-1.2,1.6-2.4,3.2-3.6,4.9c-0.9,1.1-1.8,2.1-2.8,2.9C19.2,106.4,15.6,108.3,13,102.1z"/>
			<path fill="#966121" d="M210,387.2c-8-11.9-12.5-27.5-19.6-41.7c5.3,0.2,8,7.1,12.4,6.3c0.8-0.2,1.3,0,1.8,0.601
				c0.301,0.3,0.5,0.699,0.7,1.1c0.2,0.5,0.4,1,0.601,1.5c0.399,2.2,0.6,4.5,0.899,6.8c0,0.101,0,0.101,0,0.2
				c0.101,0.8,0.3,1.5,0.5,2.3c0,0.3,0.101,0.5,0.2,0.8c0.2,1.2,0.6,2.301,0.9,3.301c0.199,0.6,0.399,1.199,0.5,1.8
				c-0.601-3.4-0.301-6.9-0.4-10.3c-0.2-7.301,0.6-14.601-0.9-21.7c-0.5-6.7,0.101-13.4-0.6-20c-0.1-0.9-0.2-1.9-0.4-2.8
				c-0.3-1.5-0.1-3.101,0.4-4.301c0.2-0.5,0.5-1.1,0.9-1.5c0.399-0.3,0.699-0.399,1-0.399h0.1c0.2,0,0.3,0,0.5,0.1
				c0.6,0.3,1.1,1.101,1.5,2.3c0,22.4,0.1,44.9,0,67.301C211,381.6,211.9,384.9,210,387.2z"/>
			<path fill="#6C7584" d="M250.4,13.3C250.9,5,253-2.4,256-9.3c6.9-0.9,13.8-0.5,20.6-0.2c1,7.3-3.6,7.4-5.6,10.7
				c-4.9,5.6-9.7,11.4-15,16.2c-1.6,0.7-3,0.2-4.3-1.3C251.2,15.3,251,14.1,250.4,13.3z"/>
			<path fill="#D4E672" d="M135.6,264.5c-3,1.6-4.5-2.2-6.1-4.8c-3-4.9-5.6-10.601-8.8-15.3c-0.3-0.5-0.6-1-0.9-1.5
				c-1.1-1.801-2.2-3.601-3.3-5.4l0,0c-6-9.7-12.5-18.8-18.3-28.9c-0.4-0.699-0.8-1.3-1.1-2c-0.3-0.399-0.5-0.899-0.7-1.3
				c-0.3-0.6-0.5-1.3-0.7-2c-0.2-1.2-0.6-2.2-1-3.2c-0.4-1.1-0.9-2.1-1.4-3.199c-0.4-1-0.8-2-0.8-3c0-0.7,0.2-1.5,0.8-2.101
				c0.1-0.1,0.2-0.2,0.3-0.3l0.1-0.1c0.4-0.101,0.8-0.2,1.2-0.101c0.1,0,0.2,0,0.3,0.101c0.1,0.1,0.2,0.199,0.3,0.3
				c4.6,4.899,8.1,11.7,12.2,17.6c0.3,0.5,0.6,0.9,1,1.4c0.3,0.3,0.5,0.5,0.8,0.8c3.2,3.6,5.5,8.6,8.5,12.4
				c0.1,0.1,0.2,0.3,0.3,0.399c0.2,0.4,0.4,0.7,0.6,1.101l0,0c2,3.6,4.2,6.899,6.3,10.399c-3.1-2.2-5.7-5.3-7.7-9.6
				c-3.2-4.5-6.3-9.101-9.5-13.601c-4.9-5.699-8.6-13.199-12.9-19.899c-0.3-0.2-0.6-0.4-0.9-0.4c-0.7,4.7,3.8,5.9,3,10.7
				c0,0.4,0,0.8,0.1,1.2c8.5,12.2,16.5,25.2,24.3,38.5C126.2,250,130.9,257.2,135.6,264.5z"/>
			<path fill="#703127" d="M198.2,331.9c-1.4-4.601-2.8-9.2-4.2-13.801c-0.4-2.399-2.8-3.3-2.1-6.6c1-1.1-0.1-2.1-0.1-3.2
				c-0.9-3.1-3.3-5.1-3-9.2c0.1-1.199,0.2-2.5,0.3-3.699c0-0.301,0.1-0.7,0.1-1.101c0.1-0.7,0.1-1.5,0.2-2.2c0.1-0.5,0.1-1,0.2-1.6
				c0.4-3.8,0.8-7.5,1-11.3c0.9-4.4,1.4-8.8,1.7-13.4c0.2-2.399,0.4-4.8,0.5-7.2c0.4-1,0.6-2.399,0.9-3.6c0-0.2,0.1-0.3,0.1-0.4
				c0-0.1,0-0.1,0.1-0.199c0.4-1,0.9-1.7,1.9-1.5c1.5,0.399,2.3,2,2.6,4c0.2,1.199,0.3,2.6,0.3,3.899c0,0.5,0,1,0,1.5
				c0.1,3.601,0.1,7.3-0.2,10.9c0,0.399-0.1,0.7-0.1,1.1c-0.2,1.9-0.3,3.8-0.3,5.8c-0.2,9.101,0.8,18.101,1.3,27.101
				c0.3,6.1,0.2,12.2,0.8,18.3C200.4,327.9,199.7,330.4,198.2,331.9z"/>
			<path fill="#0F1941" d="M84.4,207.3c-1.4-1-2.5-2.6-3.2-4.8c-3.6-7.9-8.5-13.8-12.7-20.8c-1.9-3.2-3.9-6.3-5.4-10.1
				c-1.9-9.9-1-12.8,3.8-12.4c7.4,11.5,13.9,24.5,21.7,35.5c1.1,1.5,1.7,3.5,1.5,6C88.7,203.7,86.9,206.4,84.4,207.3z"/>
			<path fill="#083D91" d="M50.3,158.8c-9.5-13-19.1-25.7-27.8-40.1c-0.4-1.8,0.5-3.1,1.2-2.7c3.8,2.2,8.4,0.2,11.6,5.5
				c5.8,8.8,12,17,16.8,27.4c0.9,2,2.1,3.8,1.8,6.6C53.2,157.8,52.3,159.7,50.3,158.8z"/>
			<path fill="#3A233C" d="M360.1,177.2c-5,7.3-10,14.6-14.899,21.899c-3.3,0.601-5.101-2.8-6.7-6.6c-0.3-5.3,2.4-7.8,4.2-10.9
				c2-3.5,4.2-6.8,6.1-10.4c2.2-2.6,3.9-6.7,7.2-6.2C358.5,168.1,360.7,171.4,360.1,177.2z"/>
			<path fill="#411022" d="M339,192.4c2.9,0.3,3.8,5,6.1,6.6c-6,8.6-11.899,17.1-17.899,25.7c-1.3,1.899-2.4,4.1-4.3,4.7
				c-1.9-1.4-2.2-4.4-2.801-7.101c0-3.2,1.4-5.399,2.101-8c3.6-4.899,7.399-9.3,10.3-15.399C334.7,196.7,335.5,191.3,339,192.4z"/>
			<path fill="#057EBA" d="M34.4,123.3c-3.6-3.8-7.9-3.2-11.8-4.6c-3.7-3.4-6.5-8.5-9.7-12.9c-0.8-1.1-1.5-2.5,0.1-3.7
				c3.2,1.6,6.3,1.4,9.5,0.3c3.1-1,6.2-1.8,9.4-2c2.8,2,2.8,6.7,3.9,10.3c0,2.6,0.5,5.2,0.2,7.9C35.8,120.5,35.5,122.2,34.4,123.3z"
				/>
			<path fill="#350D20" d="M142.9,290c-5.5-3.8-8.8-11.9-13.2-17.8c-9-12-17.5-25.101-26.3-37.7c-0.1-3.8,0.9-6.4,3.3-7.7
				c3.9,0.3,5.6,5.2,7.8,9.2c6.6,13.7,14.8,25,22,37.7c1.1,3.7,3.1,6.399,4.8,9.399C142.4,285,144.1,286.7,142.9,290z"/>
			<path fill="#1F1A3E" d="M360.1,177.2c-1.399-4-3.8-7.1-4.199-11.8c-1.801-5.2,1.199-6.8,2.8-9.4c0.5-0.8,1-1.6,1.399-2.6
				c1.9-2.6,3.101-7.1,6.301-6.3c1.8,0.4,1.899,2.6,2.399,4.7c1.7,7.4,2.601,7.5,6.5,2.5c1.5-2,2.101-6.8,5.101-5.2
				C373.7,158.4,366.9,167.8,360.1,177.2z"/>
			<path fill="#0A4DAB" d="M130.1-9.2c10.2-2.1,20.5-0.9,30.7-0.9c16.8,0,33.6-1.1,50.4,0.6c-0.3,2.5-1.5,3.8-2.9,4.7
				c-1.6,1.3-3.2,2.2-5,2c-4.3,0.2-8.2,3.2-12.3,4.1c-2,0.4-3.8,0.9-5.7-0.5c-5-8.4-11.5-6.6-17.8-6.7c-10.4,0.7-20.9,0.2-31.3,0.3
				c-1.6,0-3.2-0.4-4.6-1.5C130.9-7.5,130.4-8.2,130.1-9.2z"/>
			<path fill="#CBD566" d="M209.9,41.5c5.1-14,10.1-28,15.199-42.1c0.9-1.6,1.9-1.6,3.101-1c0.8,0.6,1.3,1.6,1.6,2.9
				c-0.1,10.2-3.7,18-7,26c-0.7,1.6-1.8,2.7-2.1,4.6c-3.7,6.8-9.101,10.9-11.9,19c-0.2,0.8-0.6,1.1-1.1,1c-1-0.8-1.5-2.1-1.5-3.9
				c0.1-2.1,0.7-3.8,1.7-5.2C208.4,42.1,209.2,41.9,209.9,41.5z"/>
			<path fill="#6E1C1C" d="M214.8,332.7L214.8,332.7c0-0.7-0.1-1.3-0.1-2V330.6c0-1.5,0-3,0.1-4.6l0,0c0-0.4,0-0.8,0-1.3v-13.2
				c0,3.5,0,7,0,10.5c0,0.9,0,1.8,0,2.7v2c0,2.1,0,4.2,0,6.3c0.101,1.3,0.3,2.5,0.7,3.7c0.3-1.3,0.8-2.601,0.8-3.9
				c0-28.5,0-57,0-85.5c0-0.2-0.1-0.399-0.1-0.6l0,0c-0.5-3.5-0.3-7.2-0.2-10.8l0,0c0-1.9,0-3.9-0.2-5.801c-0.1-0.5-0.1-1.1-0.2-1.6
				c0-0.3-0.1-0.6-0.1-0.8c-0.3,0-0.7-0.101-1-0.2c0,0.2,0,0.4,0,0.7c-0.4,22.8-0.9,45.6-1,68.399c-0.2,25.301-0.2,50.601-0.2,75.9
				c0,2.7-0.6,5.6,1.101,7.7c-0.4-3.5,1.399-5.8,1.899-8.9c-0.3-1.6-0.6-3.3-1-4.899c-0.1-0.5-0.2-1.101-0.3-1.601l0,0
				c-0.3-2.2,0-4.399,0-6.6v-8.8c0-0.301,0-0.7,0-1V333.1C214.8,332.9,214.8,332.8,214.8,332.7z M214.7,268.5
				c-0.101,0.5,0.1,2.6,0.1,4.5v0.5c0,0.3,0,0.6,0,0.9c0,1.1,0,2.199,0,3.3c0,0.6,0,1.1,0,1.7V273.6
				C214.7,271.4,214.2,269.3,214.7,268.5z M214.8,310.8c0-2.899,0-5.8,0-8.6v-4.5c0-3.7,0-7.4,0-11.101c0-0.8,0-1.699,0-2.5
				c0-0.1,0-0.1,0-0.199c0-0.7,0-1.301,0-2c0,0.399,0,0.8,0,1.199c0,6.301,0,12.5,0,18.801C214.8,304.9,214.8,307.8,214.8,310.8z"/>
			<path fill="#A97538" d="M206.2,348.9c-0.2,1.5-0.601,3-1.101,4.5c-0.199,0.6-0.399,1.1-0.6,1.699c-0.6-1.1-1.2-2.3-1.8-3.399
				c-1.8-6.5-3.6-12.9-4.5-19.9c0.6-15.5-0.9-30.8-1.5-46.2c-0.2-4.3-1.3-8.699,0.7-12.699c0.4,0.399,0.8,0.899,1.1,1.399
				c0.4,0.601,0.6,1.2,0.8,1.9l0,0c0.8,2.5,0.7,5.5,1.1,8.2c0.1,0.8,0.3,1.5,0.5,2.199c0.8,10.101,1.3,20.2,2.3,30.2
				c0.399,3.8,0.8,7.601,1.399,11.4c0.2,1.399,0.4,2.8,0.7,4.2c0.2,1,0.3,2,0.5,3.1c0.101,0.9,0.3,1.8,0.4,2.6
				c0.1,0.801,0.2,1.5,0.2,2.301c0,0.6,0.1,1.199,0.1,1.8C206.6,344.5,206.5,346.7,206.2,348.9z"/>
			<path fill="#351E37" d="M106.7,227.8c-1.1,2.2-2.2,4.5-3.3,6.7c-7.1-7.8-12.4-18.7-19.1-27.2c1.1-3.5,2.1-7.1,5.3-6.5
				c4.4-0.1,5.4,7.5,8.7,9.8c2.5,2.9,4.4,6.9,6.7,10.2C106.3,222.5,107.8,224.5,106.7,227.8z"/>
			<path fill="#0B3625" d="M143,282.7L143,282.7c-0.8,0.2-1.5,0-2.1-0.3c-2.5-1.4-3.6-6.2-6-7.9c-7.6-11.8-15.2-23.6-21.7-37.1
				c0.6-0.4,1.1-0.601,1.6-0.601c0.6,0,1.1,0.2,1.6,0.601l0,0c1.8,1.399,3,4.5,4.9,5.3c4.7,7.2,9.4,14.5,14.2,21.7
				C140,268.6,142.5,274.6,143,282.7z"/>
			<path fill="#E7602B" d="M179.8,279.4c-2,1.699-2.5-2.7-3.8-4.301c-0.1-0.1-0.2-0.3-0.4-0.3c-2.7-5.3-5.4-10.5-8.1-15.8
				c-3.9-10.1-7.9-20.3-11.8-30.4c-1.2-3-3-5.5-3.3-9.3c0.2-1,0.5-1.6,0.7-2c0.5-0.7,1-0.5,1.5,0c0.6,0.5,1.2,1.4,1.7,1.601
				c0.1,0,0.1,0.1,0.2,0.1c6.1,10,10,22.5,15.1,33.7c2.2,4.899,4.4,9.899,6.9,14.5c0,0.1,0.1,0.1,0.1,0.2
				c0.1,0.199,0.2,0.399,0.2,0.699c0.3,0.9,0.4,1.9,0.5,3C179.7,273.8,182.5,277.1,179.8,279.4z"/>
			<path fill="#5B3A2E" d="M119.4,220.8c6-10.5,6-10.5-1.6-19.2c-2-2.3-3.9-4.8-5.8-7.3c-2.6-0.8-4-4.399-5.8-7
				c-0.4-0.7-0.9-0.8-1.5-0.5c-0.1,0.2-0.1,0.3-0.2,0.5c0,0.1-0.1,0.2-0.1,0.2v0.1c-0.5,1.7,0,3.2,0.9,4.2c0.9,1,1.6,2.2,2.2,3.5
				c-1.3-2.399-2.7-4.8-5.2-3.3l0,0c0,0,0,0,0,0.1c-1.5,6.301,2,9.2,3.8,13.101c0.6,1.399,1.3,2.6,1.6,4c0.2,1,0.3,2,0.2,3.3
				c3.2,4.5,6.3,9.1,9.5,13.6c0.8,0,1.3-0.3,1.5-0.8l0,0c0.3-0.7,0.2-1.8-0.2-2.899C118,220.7,119.1,221.3,119.4,220.8z
				 M113.8,203.9c1.4,1.5,2.5,3.6,3.7,5.6C116.3,207.6,115.2,205.5,113.8,203.9z M108.3,196.7c0.5,0.8,0.9,1.7,1.3,2.6
				c0.5,1,1.2,2,1.8,2.8c0.2,0.101,0.3,0.101,0.5,0.2c0.1,0.101,0.3,0.101,0.4,0.2c0,0,0,0,0.1,0s0.2,0.1,0.2,0.2
				c0.2,0.2,0.5,0.3,0.7,0.6c-0.2-0.2-0.5-0.399-0.7-0.5c-0.1-0.1-0.2-0.1-0.3-0.2c-0.1,0-0.2-0.1-0.4-0.1c-1.1-0.5-1.7-1.8-2.3-3.1
				c-0.7-1.301-1.3-2.601-2-3.9C107.8,195.9,108.1,196.3,108.3,196.7z"/>
			<path fill="#0494CF" d="M130.1-9.2c0.4,0.2,0.7,0.5,1.1,0.7c0.8,0.9,1.1,2.2,1.1,3.6c-0.4,10.7-7.8,24.2-14.7,26.8
				c-3.3,0.2-3.2-3-2.5-6.6c1-5.2,2.5-10.2,4-15.1c0.6-3.2,1.8-5.1,3.9-5.5C125-7.8,127.2-9.8,130.1-9.2z"/>
			<path fill="#B32618" d="M191.8,308.3c-9.7-6-11.8-21.1-16.2-33.5c0.1,0.101,0.3,0.2,0.4,0.3c1.2,1,2.3,2.101,3.7,3.301
				c0-3.801-3.3-6.101-1.8-10.2c0.2-0.4,0.4-0.7,0.7-0.8c0.2-0.101,0.4-0.2,0.6-0.2c0.1,0,0.2,0.1,0.3,0.1
				c0.1,0.101,0.3,0.101,0.4,0.2c0.9,0.6,1.6,1.6,2.2,2.8c0.4,0.9,0.8,1.8,1.2,2.7c0.4,0.8,0.8,1.5,1.2,2.2c1.2,2.5,2.1,5.3,2.9,8.2
				c0.2,0.699,0.4,1.399,0.6,2l0,0c0.2,1.399,0.5,2.699,0.8,4l0,0c0.2,0.899,0.5,1.899,0.7,2.8c0.1,0.3,0.1,0.5,0.2,0.8
				c0.2,1,0.4,2,0.5,3.1c0.1,0.7,0.2,1.4,0.1,2l0,0c0,0.4-0.1,0.801-0.3,1.2C190.6,302.3,191.2,305.3,191.8,308.3z"/>
			<path fill="#37C5CC" d="M93.8,71.3c-0.2-1-0.4-2-0.6-3c0.7-6.5-0.6-12.7-1.5-18.8c-1.4-10-2.2-20.2-3.6-30.3
				c-0.3-3.4,1.5-4.3,2.8-5.9c0.7-0.2,1.4-0.4,2.1-0.7c0.7-0.4,1.3-0.3,1.9,0.3c2,2.5,2.4,6.1,2.3,9.7c-0.3,12.7,1.4,25.3,0.6,37.9
				C97.6,65.2,97.5,69.9,93.8,71.3z"/>
			<path fill="#093158" d="M50.3,158.8c1.1-1.2,1.8-3.3,3.3-3.5c1.4-0.7,2.4,0.6,3.2,2.1c2.5,4.4,4.7,9.1,7.4,13.2
				c5.6,9.7,11.1,19.4,16.7,29.1c0.5,0.899,0.9,1.8,0.2,2.899C70.9,187.9,60.6,173.3,50.3,158.8z"/>
			<path fill="#8D554F" d="M277-7.1c-3.5-4.1-7.4-1.3-11.1-1.9C262.6-9.5,259.3-9.3,256-9.3c12.1-1.9,24.2-0.4,36.4,0.1
				c-3,4.5-6.101,9-9.101,13.5c-0.3,2.2-1.2,3.1-2.5,3.4C276.1,4.3,275.4,1.3,277-7.1z"/>
			<path fill="#B35937" d="M296.3,261.7c5.101-5.4,7.3-13.101,7.4-22.601c0.1-6.699,2.5-13.1,1.1-20c-1-3.399-0.1-5,2.101-5.399
				c2.8,4,1.699,9.1,1.199,13.7c-0.399,3.8-0.8,7.5-0.399,11.199c0.3,0.2,0.6,0.301,1,0.2c1.1-0.3,2.1-0.8,3,0.8
				c0.7,2.7-0.101,4.601-1.4,6.4c-3.2,4.5-5.8,10.1-8.8,14.8c-3.9,4.601-6.1,12.8-11.6,14.101C290,268.2,292.3,263.9,296.3,261.7z"
				/>
			<path fill="#5B3033" d="M301.4,260.9c1.8-5.7,4.699-10,7.1-14.801c1.2-2.3,2.7-4.3,2.6-7.699c0.2-7.801,4.4-14.7,9.7-15.9
				c2.5,1,1.3,4.7,2.2,7C316.4,241,308.9,251,301.4,260.9z"/>
			<path fill="#76120D" d="M218.5,66.5c5.7-14.4,11.5-28.7,20.1-39.9c-3.199,8.3-6.3,16.6-9.5,24.9c-0.899,6.6-3.1,11.9-6.5,16
				C221.1,68.1,219.6,68.6,218.5,66.5z"/>
			<path fill="#8AF7F2" d="M203.7,93.2c0.5,0.9,1.1,1.7,1.7,2.6c1.1,1.4,0.899,2.7-0.301,3.7c-1.699,0.7-3.1-0.5-4.5-1.8
				c-5.6-5.4-11.399-10.2-17-15.4c-1.5-1.4-3.2-2.6-3.8-5.6c-0.1-2.5,0.8-4,2.2-4.8c2.3-1.1,3.9,1.6,5.9,2.7c2.5,2,4.4,5.6,7.5,5.6
				c2,0.7,3.3,2.9,4.7,4.8c0.5,0.8,1,1.6,1.5,2.4C202.7,88.9,203.2,91.1,203.7,93.2z"/>
			<path fill="#7CD687" d="M220.7,32c1.8-10.9,6-20.1,8.6-30.5c2.2-2.8,3.601-1,4.601,2.3c1.199,7.3-3,10.7-4.7,15.9
				C226.8,24.6,223.9,28.5,220.7,32z"/>
			<path fill="#962616" d="M194,318.1c-8.3-7.399-16.9-14.3-24.1-24.3c0.3-0.8,0.7-1.6,1-2.399c7,6.699,14,13.399,21,20.1
				C193.1,313.3,194.4,315.1,194,318.1z"/>
			<path fill="#076268" d="M104.7-3.9c2.8-5.4,6.5-6.2,10.6-5c1.5,2.1,1.7,4.9,1.5,7.8c0,4.7-0.5,8.9-3.6,11.1
				c-2,0.7-2.5-3.2-4.3-3.2c-1-0.3-1.9-0.8-2.6-1.8C104.9,2.4,104.5-0.6,104.7-3.9z"/>
			<path fill="#F2C243" d="M208-6.9c1.1-0.9,2.2-1.7,3.3-2.6c0.4,0.1,0.7,0.3,1,0.7C213.9-5.3,212.5-2,211.9,1.3
				c-1.2,6.6-2.4,13.2-3.5,19.8c-0.601,3.7-1.5,7.3-2.301,11c-1.399,2.9-1.1,8.5-4.899,7.5c-2.1-6.5,0.3-12.4,1-18.5
				C203.9,11.7,203.6,1.2,208-6.9z"/>
			<path fill="#B12216" d="M206,99.5c0.4-1.5-0.3-2.6-0.7-3.7c4.4-9.8,8.8-19.6,13.101-29.4c1.1,0.5,2.199-1.6,3.3,0.1
				c1.1,4.2-1.2,6.6-2.101,9.7c-4,8.1-6.399,18-11.699,24.6C207.1,101,206.4,100.9,206,99.5z"/>
			<path fill="#ED4222" d="M217.8-5.3c-2.6,13.2-5.3,26.5-7.899,39.7c-3.301-1.2-2.5-5.2-2.2-8.5c0.399-4,1.6-7.8,1.899-11.9
				c0.301-6.4,2-12.2,2.9-18.3c0.3-1.8,0.5-3.9,2.2-4.1C216.3-8.8,217.3-7.6,217.8-5.3z"/>
			<path fill="#AEE989" d="M49.3,67.2c1.6-5.4,4.5-8.8,7.4-12.4c0.8-1,2-1.6,0.8-3.6c5-7.2,10.6-13.2,16.3-19.1
				c1.4,3.9-1,5.9-1.7,8.7c-2,4.5-5.2,7.1-7.7,10.7c-1.2,2-2.8,3.1-3.8,5.3C56.9,60.4,54.6,67.7,49.3,67.2z"/>
			<path fill="#09B7C3" d="M325.2,3.5c-0.3,2.6,0.399,5.6-1.2,7.7c-2.9,0.6-5.2-0.7-6.5-5.1c-2.8-4-3-9.5-3.2-14.9
				C318.4-5.7,321.8-1.1,325.2,3.5z"/>
			<path fill="#083F87" d="M397.1,125c-0.6,0.1-1.199,0.1-1.8,0.2c-0.399-0.6-0.6-1.3-0.7-2.1c2.601-8.3,5.601-15.9,11.4-19.4
				c2-0.2,4-0.3,6-0.5C407.7,111.5,402.1,117.8,397.1,125z"/>
			<path fill="#3F0F0F" d="M218.5,74.9c1.1-2.8,2.2-5.6,3.3-8.4c3.2-4.1,3.601-11.6,7.3-15.1c1.101,0.3,2.301-1.7,3.4,0.2
				c0.7,2,0.3,3.8-0.3,5.7c-2.4,5.9-5.2,11.3-7.7,17.1c-1.1,1.9-2.3,3.4-4.1,3.6C219.3,77.7,218.1,77.4,218.5,74.9z"/>
			<path fill="#09B7C3" d="M313.3-8.9c-0.7,9.8-1.399,10.4-7.1,7.1c-3.4-2-7.2-3.1-10-7.2C301.9-9.7,307.6-9.7,313.3-8.9z"/>
			<path fill="#C72F1D" d="M203.7,93.2c-1.3-1.2-2.601-2.6-3.3-4.9c-0.8-5.3,1-9,3.2-12.4c2.4-2.7,3-7.2,4.601-10.7
				c1.7-3.6,2.1-3.5,4-0.3C209.4,74.5,206.5,83.8,203.7,93.2z"/>
			<path fill="#931C13" d="M241.8,335.5c-0.1,5.1-1,9.3-2.399,12.9c-2.801,7-7.5,11.899-11.9,17.1c0.1-0.1,0.1-0.3,0.2-0.4
				c1.3-3.3,2.5-6.6,3.8-9.899C235.4,349.3,237.5,341,241.8,335.5z"/>
			<path fill="#902D12" d="M211,12.9c-0.5,4.6-1,9.2-1.6,13.8c-0.301,2.7-1.101,5.4,0.399,7.8c0.3,2.3-1.7,4.7,0,7
				c-0.3,0.7-0.6,1.3-0.899,2c-4.801-1-5.101-6.2-4.5-12.2c0.699-3.4,1.399-6.8,2-10.2C208.5,19.1,207.6,13,211,12.9z"/>
			<path fill="#081247" d="M296.3,261.7c-1.8,4.899-5.1,7.899-6.5,13.3c-0.8,2.4-1.3,5.2-3,6.5c-1-2.3-1.1-4.5-0.1-6.9
				c3.1-7.899,6.2-15.8,9.899-25.3C296.5,254.6,296.4,258.1,296.3,261.7z"/>
			<path fill="#951911" d="M212.3,65.1c-2.8-2.8-2.6,2-3.399,3.7c-1.5,3.2-1.7,8-4.7,9.6c-1.3-5.5,1.3-9.3,2.399-13.7
				c0.7-2.8,1.801-5.3,2.5-8.2c0.301-0.6,0.601-1.1,1-1.6c2.9-0.1,3.801-5.4,6.9-6.4C216.5,55.1,214.4,60.1,212.3,65.1z"/>
			<path fill="#3F8E5B" d="M151.2,299.9c-3.9-2.601-5.7-7.101-8.3-9.9l0,0c-2.7-5.1-5.3-10.3-8-15.5c0.9,0.2,1.7,0.7,2.4,1.4
				c2,2,3.5,5.399,5.7,6.8C146.7,286.7,148.5,292.7,151.2,299.9z"/>
			<path fill="#061540" d="M227.8-0.3C226.9-0.4,226-0.5,225-0.5c-2.2-4.6-0.1-7.9,2-9.2c3.2-2,6.9-1.4,10.3-0.3
				c1.601,0.5,1.2,2.8,0.4,4.6c-2.101-0.9-3.7,0.8-5.2,2.5C231.1-1.4,229.8,0.5,227.8-0.3z"/>
			<path fill="#09276B" d="M227.8-0.3c1.9-1.3,2.7-4.3,4.2-6.1c1.9-2.2,4.2-5.1,5.7,0.9c-1,3.2-2,6.4-3,9.5
				c-0.3,0.7-0.7,0.9-1.101,0.3c-1.199-2-2.8-2.5-4.399-2.9C228.8,0.9,228.3,0.3,227.8-0.3z"/>
			<path fill="#0A1239" d="M94.2,13.3c-0.4-0.2-0.9-0.4-1.3-0.6c1.7-7.2,6.5-9.6,9.6-14.6c2.1,2.5,1.7,6,1.3,9.4
				c-0.1,0.9-0.4,1.8-0.8,2.6C100.5,13.1,97.8,16.1,94.2,13.3z"/>
			<path fill="#BF3518" d="M211,12.9c-1.9,2.3-2.3,6.5-4.6,8.2c1.899-10,3.899-20,5.8-29.9c0.7-0.1,1.3-0.3,2-0.4
				c0.3,0.4,0.399,0.7,0.3,1.1s-0.1,0.6-0.2,0.6C213.2-0.7,212.1,6.1,211,12.9z"/>
			<path fill="#5B683D" d="M233.6,4.4c0.4-0.1,0.7-0.2,1.101-0.3c3.5,1.6,4.2,3.9,1,7.7c-2.2,2.6-3.9,6.2-6.5,8
				C229.8,14,231.9,9.3,233.6,4.4z"/>
			<path fill="#BBDF77" d="M125.1,235.8c-3.1-2.2-5.7-5.3-7.7-9.6c0.4-0.9,0.5-1.601,0.6-2.3c0.2-3.4-3.4-4.601-3-8.101
				c2.1,0.3,2.6,4.101,4.5,5C121.3,225.8,123.2,230.8,125.1,235.8z"/>
			<path fill="#052E67" d="M115.3,0c0-3,0-6,0-9c2.8-0.3,5.7-1.1,7.6,3.7c-0.8,2-2.5,3.1-2.4,6c-1.3,1.5-2.6-0.2-3.9,0.1
				C116.1,0.7,115.7,0.4,115.3,0z"/>
			<path fill="#7FEBB6" d="M70.6,40.1c1.1-2.7,2.1-5.3,3.2-8c2.8-3.2,5.6-6.4,8.5-9.6c-0.1,1.3-0.1,2.7-0.2,4
				C79.5,33.7,76.5,40,70.6,40.1z"/>
			<path fill="#357B6C" d="M102.7,7.9c0-3.3-0.1-6.6-0.1-9.9c0.7-0.6,1.4-1.3,2.1-1.9c2.3,2,2,5.5,2.1,8.7
				C106.3,8.8,104.9,9.7,102.7,7.9z"/>
			<path fill="#196E66" d="M250.4,13.3c0.399,0.4,0.699,0.9,1.1,1.3c0,10.9-4.5,17-9.7,22.3c-0.6,0-1-0.4-1.2-1.2
				C243.9,28.3,247.2,20.8,250.4,13.3z"/>
			<path fill="#142E69" d="M90.8,13.3c0.5,3-1.3,3.1-2.2,4.3c-0.1,1.9-1,2.7-1.9,3.5c-0.4,1.8,0,4.9-2,4.5c-1.6-0.2-1.2-2.8-1.4-4.5
				C85.2,17.1,87.7,14.3,90.8,13.3z"/>
			<path fill="#2E8568" d="M230.9,56.2c0.5-1.5,1-3,1.5-4.6c2.8-5.3,5.5-10.6,8.3-15.9l0.2,0.7c1.8,3.5-0.4,5.9-1,8.7
				c-2.2,4.5-3.801,10.2-7.7,12C231.7,57.2,231.3,56.9,230.9,56.2z"/>
			<path fill="#323D47" d="M342.4,35.8c-0.301-3.4-1.301-7,0.6-10.1c0.8,0.9,1.6,1.9,2.4,2.8c0.699,1.2,1.3,2.5,2,3.7
				C346.5,36.3,344.7,37.1,342.4,35.8z"/>
			<path fill="#37251E" d="M210.1,54.8c-0.1,0.5-0.1,1-0.199,1.4c-1.301,4.1-2.7,7.7-6.2,5.7c-0.9-5.7,1-8.9,4.1-10.8
				c0.3,0,0.7-0.1,1-0.2C209.2,52.3,209.6,53.5,210.1,54.8z"/>
			<path fill="#AF7B60" d="M214.3-7.5c0-0.6-0.1-1.2-0.1-1.7c1.5-1.9,3.6-1.9,4.8-0.5c1.1,1.2-0.1,3.3-1.2,4.4
				C216.6-6,215.4-6.8,214.3-7.5z"/>
			<path fill="#09B7C3" d="M329.4,8.3c-0.4,1.5,0.1,4.7-1.801,3.4c-1.699-1.2-1.8-3.7-0.3-5.9C327.9,6.7,328.6,7.5,329.4,8.3z"/>
			<path fill="#D5AE3C" d="M298.5,189.2c-0.3,0.6-0.7,1.2-1,1.8c-2.5-5.3-4-1.3-5.6,1.5c-9.5,17.6-19.4,34.6-29.101,51.9
				c-6.7,11.899-13.5,23.5-20.3,35.1c-1.1,1.8-1.8,5.4-4.2,3.2c-1.7-5.7,0.601-9.7,2.3-14c4-4.601,5.9-11.7,8.7-17.8
				c12.8-27.801,26.601-54.301,40.5-80.8c1.3-2.6,2.9-4.8,4.5-6.7c1.601-1.9,3.2-3.6,5-0.3c1.4,4.1,0.2,8.7,1.101,12.9
				C300.9,180.8,299.7,185,298.5,189.2z"/>
			<path fill="#F57B2D" d="M298.5,189.2c0-4.2-0.1-8.4-0.1-12.7c1.1-3.4,1.1-7.5,2.899-10.4c0.4-1,0.9-1.8,1.5-2.5
				c1.601-1.6,3.101-3.7,4.601-5.4c6.399-11.1,12.199-23.1,18.8-33.9c4.5-7.3,7.7-16.8,13.8-21.4c2.9,0.1,6.7-2.4,8.3,2.4
				c1.8,5.6-2,8.7-4.1,12.2c-3.601,6-6.2,13.6-10.5,18.6c-1.4,1.6-2.2,4.6-4.3,4.2c-6.101,6.7-10.4,16.4-15.7,24.5
				C308.5,172.8,303.6,181.1,298.5,189.2z"/>
			<path fill="#F8F655" d="M238.5,282.7c15.1-24.601,28.8-51.101,43.3-76.5c4.7-8.3,9.4-16.5,14.4-25.2c1.899,3.4,0.8,6.9,1.2,9.9
				C281.2,217.8,265,244.6,248.8,271.5c-0.5,0.8-0.899,1.7-1.399,2.6c-3.2,5.101-4.4,13.5-9.9,14.801
				C235.3,285.9,236.3,284.1,238.5,282.7z"/>
			<path fill="#F89236" d="M306.8,214.1c-1.2,1.101-2.1,2.601-2.1,5.101c-6.101,15-12.101,30-18.2,45c-0.8,2-1.6,4.899-3.6,3.899
				c-2.5-1.3-5-3.1-7.4-5.1c-0.2-0.2,1.2-1.4,2-2c7.5-13.6,13.7-28.8,20.4-43.2C303.3,206.3,310,196.3,314.8,184
				c0.7-1.9,2.101-2.9,3.7-2.1c0.6,0.9,0.8,2.1,0.8,3.3c-0.8,5.5-3.399,9.5-4.899,14.399c-1.5,3.5-2.601,7.301-4.301,10.601
				C309.3,211.9,308.5,214,306.8,214.1z"/>
			<path fill="#226446" d="M319.2,180.8c-7.601,11.7-13.4,25.8-20.101,38.8C293,231.5,287.2,243.9,281.2,256c-1,2-1.4,5.4-3.7,5.1
				c1-2.6,1.7-5.399,2.9-7.8c6.399-12.5,11.8-26.2,17.199-39.8c1.7-4.3,4.801-6.6,6.601-10.6c3.2-7,7.8-12.4,8.8-22
				c0.5-4.3,3.6-7.9,5.6-11.9c0.601-1.1,1.301-1.2,2-0.6c1.2,3.4,0.601,7,0.4,10.6C320.7,180.1,320.1,180.7,319.2,180.8z"/>
			<path fill="#797F46" d="M329.4,140.4c3.899-9.2,9.5-16,13.899-24.5c0.8-1.5,1.7-2.8,2.4-4.3c0.8-1.7,2.399-3.3,1.7-5.6
				c-0.7-2.3-2.5-1-3.801-1.2c-1.199-0.2-2.399-0.2-3.699-0.3c-0.2-1,0-1.8,0.5-2.4c2.5-2.4,5.1-1.1,7.699-0.6
				c3,2.3,2.801,6.3,1.5,9.8c-3.699,10-6.899,20.4-12.1,28.8c-2,1.6-4,3.1-6,5c-0.9,0.9-2.4,2.1-2.5-1.4
				C329.2,142.6,329.3,141.5,329.4,140.4z"/>
			<path fill="#104E8F" d="M237.7,288.3c4-3.399,6.1-10.2,9.8-14.2c-4.6,15-11.1,27.9-17.3,41.2c1.399-6.399,2.7-12.8,4.1-19.2
				C233.6,291.6,235.1,289.4,237.7,288.3z"/>
			<path fill="#16362A" d="M320.8,168.8c-0.7,0.1-1.399,0.1-2.1,0.2c2.1-5.1,4.2-10.2,6.2-15.3c1.8-1,2.3-3.9,3.699-5.6
				c1.801-2.2,3.5-3.7,5.2,0.1c0.7,3.7-1.2,5.8-2.2,8.5c-0.699,1.7-1.6,3-2.6,4.2C326,162.8,325,169.9,320.8,168.8z"/>
			<path fill="#3E6841" d="M333.2,148.6c-2-2.3-3.101,0-4.601,1.7c-1.1,1.4-1.699,4.6-3.699,3.4c1.399-3.3,2.8-6.6,4.199-10
				c3.101,0.6,4.4-5.5,7.4-5c1.2,4.1-0.5,6.5-2,9C334.2,148.2,333.7,148.5,333.2,148.6z"/>
			<path d="M243.6,305.5c-1.1-4.2,0-6.4,1.801-8.1c0.699-0.601,1.5-0.101,1.5,1.199C247,302.3,245.3,303.6,243.6,305.5z"/>
			<path fill="#6BA07E" d="M304.8,60c7.4,7.9,15.8,13.5,22.5,23.3c1.101,7.2,1.4,14.3-0.3,21.4c-1.6,1.9-3.4,1.7-5.2,1.5
				c-2.2,0.6-4.3,0.7-6.5,0.1c-4.7,0.8-9.399,1-14.1,0.2c-0.601-0.2-1.3-0.3-1.9-0.4c-1.899-0.2-3.899,0.4-5.5-1.8
				c-3-6.6-0.3-14.2-1.6-21.1c-0.101-2.4,0.5-4.4,1.5-6.1C297.6,71.7,299.9,63.8,304.8,60z"/>
			<path fill="#046DC9" d="M281.2,6c0.7-0.6,1.399-1.1,2-1.7c5-1,7.8,1.5,9.5,10c2.1,10.5,6.6,19.6,8.8,30.2
				c0.5,2.5,2.1,5.5,0.3,7.5c-1.399,1.5-2.899-1.1-4.1-2.6c-8.601-10-17.3-19.9-25.9-29.9C272.7,11.2,275,7.9,281.2,6z"/>
			<path fill="#AD9252" d="M304.8,60c-2.2,7.4-6.2,12.4-9.7,18c-0.3-0.1-0.8-0.3-0.899-0.7c-1.601-6.2-3.3-10.3-6-1
				c-0.4,1.4-1.5,0.5-2.2-0.6c-1.3-8.4-1.6-17-1.3-25.6c0.1-2.8,0.6-5.5,2.399-7C293.3,47.7,298.9,54.1,304.8,60z"/>
			<path fill="#606474" d="M281.2,6c-3.601,3.7-7,7.8-9.5,13.4c-1.5,1.4-3.2,2.3-3.2,5.8c0.2,0.8,0.1,1.4-0.3,1.8
				c-0.7,0.4-1.4,0.2-2-0.5c0.399-4-1.601-1.5-2.4-2.2c-1.7-0.9-3.3-2-4.3-4.5c-0.9-5.4,1.8-7,3.9-9.5c2.5-3,6-4.7,6.199-10.9
				c2.2-2.8,4.5-5.5,7.4-6.6C278.9-3.1,276.4,4.4,281.2,6z"/>
			<path fill="#04082A" d="M327,103.4c-1.8-6.8-1.3-13.5,0.3-20.2c1,0.2,2,0.5,3,0.7c3.9,3.8,7.8,7.7,11.601,11.5
				c2.899,0,5.3,1.5,6.899,5.4c0.2,0.7,0.2,1.5,0.101,2.3c-2.9,0.1-5.801,0.2-8.7,0.3C335.7,106.9,331.3,109.5,327,103.4z"/>
			<path fill="#044955" d="M268.4,26.1c0.1-0.3,0.1-0.6,0.199-0.9c3.301,3.2,7.301,4.6,9.801,9.6c5.3,9.3,3.6,20.3-3.801,23.9
				c-4.1-3.8-3.399-11.6-5.699-17C268.7,36.6,266.6,31.5,268.4,26.1z"/>
			<path fill="#161322" d="M287,43.2c0,11.2-0.3,22.5,0.5,33.7c3.2,4.2,1.9,9.2,1,14.1c-3.3,2.7-3.4-2.2-4-4.7
				c-1.8-6.9-1.9-14.6-3.2-21.8c-0.399-2.5-0.8-5-1.3-7.5c0.1-6.6,1.1-12.9,2.1-19.2C284,38.9,285.7,40.5,287,43.2z"/>
			<path fill="#317C77" d="M282.1,37.8c1.801,6.3-1.3,12.1-0.8,18.4c0.101,6.3,0.3,12.5-0.6,18.7c-0.101,1.4-0.5,2.6-1.2,3.5
				c-4.6-0.5-3.1-7.5-4.8-11.1c-0.601-3-1.3-6,0-8.9c0.1-0.8,0.1-2.1,0.399-2.4c6.301-5.1,5-13,3.301-21.1
				C279.8,35.2,281.1,35.9,282.1,37.8z"/>
			<path fill="#040512" d="M294.1,103.3c1.7,0.1,3.4,0.2,5,0.3c1.2,5-1.1,8.4-2.5,12.1c-4,11.2-8.399,22-12.8,32.9
				c-8.7,24.4-18.3,47.8-27.3,71.9c-0.9,2.4-1.9,4.7-3.2,6.6c-6.899,8.801-14.2,17-19.6,28.4c-1,2.1-1.9,4-3.7,3.8
				c-3.1-1.5-1.9-6-2.3-9.1c-1-9-3.101-17.9-2-27.4c-0.5-5.2-0.7-10.1,3.2-12.5c4.1,2.4,3.5,9,4.899,13.8
				c0.8,2.801,1.101,5.801,1.5,8.801c0.101,1.1,0-0.301,0.101,0.8c0,0.8,0.1,1.6,0.1,2.399c0.1-0.6,0.1-1.199,0.2-1.8
				c0.2-1.1,0.6-2.1,1.1-3c1.4-2.1,2.9-4.2,4.5-6c10.101-12.8,18.9-27.1,21.601-48.1c0.5-2.2,1.5-4,2.1-6.1s0.8-4.4,1.5-6.5
				c2.4-9.2,4.7-18.6,7-27.9c0.5-2.7,1.3-5.2,2.2-7.7c2.2-5.5,2.7-12.1,4.5-17.8c0.8-2.7,1.7-5.5,3-7.7c1.399-2,3.1-2.6,5-2.5
				C290.2,101,292.4,100.4,294.1,103.3z"/>
			<path fill="#05030B" d="M237.7,288.3c-1.101,2.601-2.2,5.2-3.4,7.9c-3.2-1.5-1.899-6.101-2.2-9.101c-0.8-8.5-3-16.8-1.8-25.699
				c4.2-9.601,9.8-16.9,15.5-24.101c1.2-1.5,2.601-3.2,4.2-0.899c1.5,5-0.4,9.1-1.4,13.399c-1.699,7-3.8,13.601-6.6,19.7
				c-1.5,4.1-2.9,8.4-3.5,13.2C238.4,284.7,235.7,285.6,237.7,288.3z"/>
			<path fill="#D45926" d="M228.7,211.1c-1,3.9-1.9,7.801-2.9,11.7c-3.2-5-1.8-11.899-2.899-17.899c-1.101-6.301-1.5-12.9-2.2-19.4
				c1-1.4,2.2-1.6,3.399-0.7c4.101,5.7,4.5,14.101,5.9,21.601C230.4,208.1,230.3,210.4,228.7,211.1z"/>
			<path fill="#D23520" d="M249.6,236c-6.399,8.5-12.899,16.9-19.3,25.4c-0.1-0.7-0.1-1.4-0.2-2.101c5.801-14.1,13.9-24.3,22.5-33.8
				C253.8,230.6,253.3,234.5,249.6,236z"/>
			<path fill="#E27C39" d="M223.8,185.8c-1-0.1-2-0.1-3-0.2c-0.8-6.1-1.6-12.3-2.399-18.4c-0.4-4.1-0.9-8.1-1.301-12.2
				c1.2-2.8,2-0.8,2.7,0.7c1.101,2.8,1.5,6,2.2,9.1c0.2,2.1,0.8,4.1,1.2,6.1C223.4,175.8,226.7,180.5,223.8,185.8z"/>
			<path fill="#A7211F" d="M214.4,205.6c0-14.3,0-28.6,0-42.899c0.399,0,0.8,0,1.1,0c0,7,0,14.1,0,21.1
				C214.7,190.9,216.3,198.5,214.4,205.6z"/>
			<path fill="#220B0A" d="M216.2,247.3c-1.8-6.399-0.3-13.1-0.8-19.7c0.3,0,0.6,0,0.899,0.101C216.3,234.3,216.2,240.8,216.2,247.3
				z"/>
			<path fill="#0763B4" d="M348.4,101.9c-2.2-2.2-4.4-4.3-6.601-6.5c1.4-3.8-0.899-6.8-0.899-10.2c-1.7-7.1-4-13.9-5.801-21
				c-0.6-2.5-1.8-4.8-0.899-7.8c4.3-2.7,5.6,2.5,6.899,6.9c2.601,9,5.101,18.1,8.601,26.4c0.899,3.9,1.899,7.8,0.3,11.8
				C349.5,102.3,349,102.4,348.4,101.9z"/>
			<path fill="#082783" d="M334.6,56.5C336.2,66.4,340,75,340.9,85.2c-6.7-18.4-12-37.7-17.101-57.2c0.3-0.3,0.8-0.6,0.9-0.4
				c2,4.6,1.6-1.3,2.399-1.4c1.4,2.4,1.5,5.6,2.2,8.4C332.3,41.2,335.7,47.5,334.6,56.5z"/>
			<path fill="#07165F" d="M327.1,26.2c0.101,6.3-1.899,2.7-3.3,1.7c-2.3-7.1-6.1-13.2-6.3-21.9c2.1,1.9,4.8,1.9,6.5,5.1
				c0,0.5,0,1.1,0,1.6C323.1,18.4,326.1,21.8,327.1,26.2L327.1,26.2z"/>
			<path fill="#641215" d="M98.1,133.6c-1.3-4.8-1.9-9.8-2-15c-0.9-2.5-0.8-5.2,0.7-6.6c2.9-2.7,4.4-7.8,7.5-10
				c1.1-0.6,2.2-0.5,3.2,0.2c0.5,0.5,0.8,1.1,0.9,2c0.1,2.2-0.8,3.8-1.4,5.7c0.5,9.4,5.3,15.9,6.7,24.8c0.5,2.9,2,5.8-0.2,8.2
				s-4.6,2.6-6.7-0.4C104.1,139,102,134.1,98.1,133.6z"/>
			<path fill="#B53C27" d="M106.9,110c-0.4-1.8-2-4.2,0.8-4.5c0.2,0,0.4-0.1,0.5,0c7.1,12.2,13.2,25.5,17.2,41
				c-0.3,1.3-0.8,2.1-1.6,2.4c-1.1-1.7-2.1-3.4-3.2-5.1C116.2,132.3,112.2,120.4,106.9,110z"/>
			<path fill="#0566C6" d="M83.4,93.5c2.1-1.8,4.2-3.6,6.4-5.4c0.7-1.4,1-3.3,1.9-4.5c1.7-1.8,3.3-4,5.2-5.6c1.8-1,3.1-3.2,4.8-4.5
				c0.8-0.7,1.6-1.3,2.3-2.1c0.5-0.7,1.1-1.3,1.7-1.8c1.8-1.5,3.4-3.7,5.3-5.2c2.8-2,4.9-7,8.6-5.3c4.6,8.8,4.6,8.9,0,18.3
				c-1,2.1-1.1,4.5-1.4,6.9c-4.9,9.7-11.9,15-18.4,21.3c-2.4,1.4-4.6-0.1-6.7-1.5c-2.5-0.1-5-0.1-7.5-0.2c-2,2.4-4.4,2.2-6.7,2
				c-0.6-0.1-1.1-0.3-1.7-0.6c-2.6-2.6-1.3-5.2,0.2-7.4C79,95.4,80.9,93.1,83.4,93.5z"/>
			<path fill="#4788B7" d="M80.9,123.6c4.1,10.5,8.1,21.1,12.2,31.6c-1.4,5.3-2.8,1.2-4-0.2c-2.8-3.6-4.9-8.4-8.3-10.9
				c-1.6-1.4-2.6-3.8-3.9-5.7c-2.1-3.6-4.8-6.5-5.1-11.9c1.3-6.4-1.6-13.5,1.5-19.6C77.8,107.8,80.5,113.8,80.9,123.6z"/>
			<path fill="#060D48" d="M80.9,123.6c-2.3-5.7-4.6-11.3-6.9-17c-0.3-0.4-0.4-0.8-0.3-1.2c0-0.5,0.1-0.7,0.1-0.7
				c0.9-1.6,2.2-0.3,3.2-1c0.4-0.1,0.7-0.1,1,0c2.2,4.4,5.1-1.3,7.4,1.3c-0.9,5.4,1.8,9.3,2.2,14.1c0.2,2.3,1.8,4.8,0.2,6.9
				c-1.3,1.7-2.6-0.4-3.9-1.1C82.9,124.4,81.9,124,80.9,123.6z"/>
			<path fill="#4C6087" d="M81.3,142c3.6,1.3,5,6.6,7.7,9.6c1.3,1.4,1.7,5.4,4.1,3.6c4.4,10.7,8.8,21.4,13.2,32.1
				c-0.5,0.1-1,0.1-1.5,0.2c-3-0.3-4.4-4-6.1-7.1c-3.4-6.2-6.1-13.3-10-18.9c-1.8-4-4.1-7.4-5.9-11.5
				C81.9,147.6,80.2,145.5,81.3,142z"/>
			<path fill="#4B1113" d="M93,104.1c2.5-0.2,4.9-0.5,7.4-0.7c1.5-1.1,3-2.4,4.2,0.7c-1.6,6.7-6.9,7.9-8.5,14.6
				C95,113.8,94,108.9,93,104.1z"/>
			<path fill="#091574" d="M85.3,105c-1.4,0-2.6,0.7-3.8,2c-2.5,2.7-3.3,0.5-3.5-3.3c2.5,0.1,5,0.1,7.6,0.2
				C85.5,104.3,85.5,104.6,85.3,105z"/>
			<path fill="#042A3E" d="M382.3,86.6c0.7,1.2,1.5,2.4,2.2,3.6c1.4,8.5,0.6,10.6-5.3,15.4c-0.9,0.5-1.9,0.2-2.8,0.4
				c-6,0.9-12,2.3-17.9-0.9c-2.3-3-1.2-5.9,0.2-8.7c1.6-2.3,3.3-4.3,5.1-6.2c5.3,0.7,10.4-0.1,15.101-4.7
				C380,84.4,381.3,85.4,382.3,86.6z"/>
			<path fill="#241920" d="M363.3,57.9c1.5,1,2.7,2.5,3.3,5c-0.3,11.6-4.8,20.4-7.899,30.1c-2.5,2.6-4.2-0.7-6-2.5
				c-1.8-1.7-3.601-3.3-5.3-5c-1.101-1.5-1.301-3.4-1-5.6C351.1,71,356.4,62.9,363.3,57.9z"/>
			<path fill="#375C54" d="M363.3,57.9c-4.5,8.7-10.5,14.8-15.899,22.1c-3.301-2.8-3.101-7.8-3.101-12.6
				c1.3-11.3,6.5-16.4,12.7-19.9C359.3,50.8,361.8,53.7,363.3,57.9z"/>
			<path fill="#114887" d="M395.1,123.3c0,0.6,0,1.2,0.101,1.9c-2.601,3.7-5.101,7.5-8.2,11.9c-0.8-7.5-1.8-14-7.7-11.5
				c-1.1-2.5,0-4.5,1-5.8c3.9-5,6.5-11.8,10.3-16.9c0.4-0.5,0.9-0.8,1.301-1c0.699,0.6,1.399,1.2,2.1,1.8c5.9,4.9,6.2,7.6,1.6,14.9
				C394.9,119.8,392.8,120.9,395.1,123.3z"/>
			<path fill="#2A6C49" d="M382.3,86.6c-0.7,0.1-1.5,0-2.1,0.5c-5.101,3.4-9.601,10.9-15.9,4.7c-0.3-9.4,2.7-16.5,6.3-23.2
				C374.6,74.6,378.4,80.6,382.3,86.6z"/>
			<path fill="#4D4331" d="M370.7,68.6c-0.9,8.6-3.9,15.7-6.3,23.2c-0.9,2.7-2.301,4.6-4.301,4.9c-1.899,0.6-2-1.3-2.1-3.4
				c1.6-11.1,5.2-20.6,8.6-30.4C368,64.8,369.3,66.7,370.7,68.6z"/>
			<path fill="#0E6677" d="M357.1,47.5c-2.1,4.5-5.199,7.5-8,10.7c-1.8,2.2-3,4.6-3.1,8.2c-3.9-2.7-2.8-8-2.7-12.7
				c2.8-5.1,5-11.6,10.2-11.3C354.8,44.2,355.9,45.9,357.1,47.5z"/>
			<path fill="#257EAA" d="M395.1,123.3c-2.1-1.7-3,2.1-5,2.7c0.601-3.5,2.101-5.4,3.5-7.1c4.101-5,5-9.8,0.5-15.2
				c3.9,0,7.9,0,11.801,0C402.4,110.2,398.8,116.7,395.1,123.3z"/>
			<path fill="#6D7355" d="M353.6,42.5c-3.5,2.7-5.399,8.8-9.3,10.5c-1.899-1.6-0.7-4.4-1-6.6c0-1.1,0-2.2,0-3.3
				c1.8-4.2,3.7-7.8,7.4-5.3C352,38.9,352.9,40.5,353.6,42.5z"/>
			<path fill="#064357" d="M392,101.9c0,0.4,0,0.8,0,1.3c-4.3,4.1-8.6,6.3-12.8,0c3.7-2.4,5.1-7,5.3-12.9
				C387,94.1,389.5,98,392,101.9z"/>
			<path fill="#A5965B" d="M350.7,37.8c-2.5,1.7-4.9,3.5-7.4,5.3c-0.3-2.4-0.6-4.8-0.899-7.3c1.699-1.2,3.3-2.4,5-3.5
				C348.5,34.1,349.6,35.9,350.7,37.8z"/>
			<path fill="#B88454" d="M211,311.4c-0.6-0.7-1.3-1.4-1.9-2.101c-3.199-6.6-2.8-14.399-2.8-22c0-3.3-0.1-6.6,0.101-9.899
				c3.3-10.601,2.6-22,1.8-32.801c-1.3-18.6-0.5-37.199-0.8-55.8c-0.101-5.5-0.5-11.1,0.5-16.6c0.5-1,0.899-2.6,2-1.6
				c1,1,0.6,2.9,0.8,4.5c0.1,16.7,0.3,33.4,0.3,50.2C211,254,211,282.7,211,311.4z"/>
			<path fill="#4CB8BA" d="M214.5,133.4c-0.7-4.5-1.4-9-2.1-13.4c-1.9-1.1-1.801-4-2.4-6.4c-0.2-2.8,0.3-5.2,1.4-7.4
				c0.8-1.3,1.699-2.2,2.8-2.7c1.1-0.4,2.1-0.2,3.1,0.8c0.7,6.3,5.3,7.2,7,12.3c-0.8,3-2,5.9,1.4,7.2c1.399,0.5,2.6,2.6,3.5,4.5
				c1.6,4.9,0.899,8.4-2.4,10.3c-0.5,0.1-1.1,0.1-1.6-0.1c-2.101-1-3.5-3.6-4.8-6c-2.301-4.2-2.9-0.3-3.9,1.7
				C215.7,134.7,215,134.6,214.5,133.4z"/>
			<path fill="#315C69" d="M214.5,133.4c0.7,0.2,1.5,0.3,2.2,0.5c0.899-0.3,1.5,0.3,2.1,1.2c1.9,4.4,3,9.3,3.601,14.5
				c0.8,3,1.5,6.1,2,9.2c0.3,3,1.199,6-0.4,8.7c-1.7,1.1-2.6-0.8-3.7-2.2c-1.5-3.1-0.7-8.1-3.3-10.3
				C216.2,147.8,215.3,140.6,214.5,133.4z"/>
			<path fill="#0C579D" d="M210.7,175.1c-0.601-1.6-1.101-3.1-1.7-4.7c-1.1-0.5-1.7-1.7-2.3-3.1c-0.7-2.6-1.8-5-1.9-8
				c1-4.1-0.8-9.5,2.2-12.8c1.9-0.7,2.7,1.9,3.9,3.4C210.9,158.4,210.8,166.7,210.7,175.1z"/>
			<path fill="#DCDC9F" d="M211.4,112.8c1.199,2.1,0.899,4.7,1,7.2c-0.4,7.1-0.101,14.3-1.2,21.3c-1.8,3.5-2.601,0.6-3.5-1.5
				c-1.4-8.3,0.1-16,1.8-23.7C209.9,114.6,210.4,113.4,211.4,112.8z"/>
			<path fill="#2AB4B9" d="M208.6,139.3c0.601,1.6,1.301,2.6,2.601,2c-0.101,2.9-0.101,5.9-0.2,8.8c-1.9,0.8-2.8-0.4-3.1-3.3
				C206.4,143.8,205.6,141,208.6,139.3z"/>
			<path fill="#D1522A" d="M123.8,148.8c0.3-0.6,0.6-1.1,0.9-1.7c3.3,0,4.2,4.7,5.6,7.9c8.6,18.9,16.3,38.6,24.7,57.7
				c0.6,2.6,2.4,4.8,0.9,8c-1.2,0-1.8-3.3-3.4-1.601c-8-19.199-16-38.3-24-57.6C126.8,157.5,124.1,154.2,123.8,148.8z"/>
			<path fill="#03BBB9" d="M70.6,40.1c4.5-3.1,7.5-9.4,11.5-13.6c2,9.8-1.3,18-3.1,26.7c-4,12.7-10.5,22.2-16.5,32.3
				c-3.7,6.3-5.8,14.7-10.5,19.7c-4.7,1.6-9.7,1.1-13.4,7.1c-2.6-1.8-2.5-5.4-2.5-9c1.2-10.6,7-16.2,10.9-23.7
				c5.4-10.1,11.3-19.3,16.5-29.7C65.8,46.7,68.2,43.4,70.6,40.1z"/>
			<path fill="#091574" d="M76.9,103.7c-0.9,1.4-2,1.3-3.2,1.4c-1.1,0.4-1.5-0.8-1.8-2.2c0.3-8.6,1-17.1,2.6-25.3
				c0.5-2.7,0.8-5.4,0.7-8.2c0.7-4,0.2-8.7,3.1-11.2c2.6-0.7,2.9-4.4,4-7.2c0.7-1.8,1.6-3.4,2.9-3.1c1.8,0.4,1.2,3,1.2,4.7
				c-0.1,4.5,0.6,8.9,0.8,13.3c0.2,4.7,1.7,9.9-2.3,14.2c-2,2.1-2,8.6-1.7,13.5C81.9,97.9,77.5,97.7,76.9,103.7z"/>
			<path fill="#04CBDA" d="M78.4,58.2c-0.3,3.9-0.2,8-1.5,11.6c-4.8,14.1-11.4,25.6-19.7,34.9c-1.2,0.8-2.5,1-3.7,0.1
				c-0.5-0.4-0.8-1-1-1.8c3.7-13.5,11-22.8,16.9-33.5c3.1-5.5,5.5-12.2,9.6-16.3C78.8,54.9,78.6,56.6,78.4,58.2z"/>
			<path fill="#46273D" d="M91.8,85.3c-0.7,0.9-1.3,1.9-2,2.8c-0.4-6.6,3.2-10.9,4-16.8c1.2-3,2.3-6.1,2.7-9.7
				c0.7-7.9,2.7-15,5.2-21.8c1.5-2,1.9-8.2,5.2-3.3c1.4,8.9,1.1,17.9,1.1,26.9c0,3.2-0.9,5.8-2,8.3c-0.3,0.4-0.7,0.8-1,1.1
				c-3-3.2-1.1-8.5-2.1-12.4c-0.2-0.7-0.4-1.5-1-1.6C98,67.5,96.7,78.1,91.8,85.3z"/>
			<path fill="#0DD6E3" d="M86.7,21.1c-0.1-2.2,0.3-3.7,1.9-3.5c2.2,16.7,5.3,33.3,4.5,50.7C91,52.5,88.8,36.8,86.7,21.1z"/>
			<path fill="#0C42AA" d="M343.2,46.4c1,2,0.8,4.3,1,6.6c1.5,4.2,0.1,9.4,1.8,13.5c0.1,4.6,0.3,9.1,1.4,13.5
				c-0.101,1.9-0.101,3.8,0.8,5.3c1.1,1.7,1,3.3-0.101,4.9c-3.6-8.1-6.6-16.6-8.699-26c-0.801-3.7-2-7.1-4.9-7.6
				c-2.2-7.1-4.2-14.2-5.3-21.9c3.5,0.9,5.8,4.8,8.5,7.7C339.5,44.1,340.8,47.3,343.2,46.4z"/>
			<path fill="#082783" d="M327.1,26.3c-3-3.1-3.899-8.8-6.3-12.5c1-2.8,2.3,1.6,3.101-0.9C325.5,17,326.8,21.4,327.1,26.3z"/>
			<path fill="#0468B4" d="M379.2,103.2c4.3,0,8.6,0,12.8,0c-3.4,8.7-8.5,14.8-12.7,22.4c-4.3,7.2-8.6,14.3-12.899,21.5
				c-1.801,2.8-3.7,5.6-5.5,8.4c-3.7,0.2-4.4-1.2-2.2-6.8c3.899-10.1,6.8-21.2,11.399-30.7c2.301-4.8,3.4-11.1,7-14.3
				C377.8,103.5,378.5,103.3,379.2,103.2z"/>
			<path fill="#220B0A" d="M215.2,366.5c-0.9-1.6-0.8-3.6-0.8-5.6c0-30.7-0.101-61.301-0.101-92c0-1.301,0.2-2.601,1.2-3.801
				c0,23.9,0,47.801,0,71.7C215.4,346.7,215.3,356.6,215.2,366.5z"/>
			<path fill="#085F43" d="M49.3,67.2c3.6-4.2,7.1-8.3,10.7-12.5c1.4,0.2,1.4,1.6,0.7,2.7C53.8,68.6,47.6,80.7,40,90.8
				c-2.8,2.1-5.2,5.5-7.8,8c-2.3,2.2-4.8,4.9-7.5,1C33,88.9,41.2,78.1,49.3,67.2z"/>
			<path fill="#06242B" d="M24.8,99.8c4,0.6,6.8-3.2,9.8-6.5c1.7-1.9,2.9-4.8,5.3-5c-0.3,7.6-3.6,11-7.7,13.4
				c-3.2,2-6.4,2.4-9.7,0.8C23.3,101.6,24,100.7,24.8,99.8z"/>
			<path fill="#F8692D" d="M207.9,277.9c-0.4,10.6,0.3,21,1.1,31.5c-2.8,4.3,0.2,8.699-0.1,13.199c-0.301,5.101,0,10.4,0,15.601
				c1.399,7.899-0.301,16,0.899,23.899c-0.1,4.9-0.1,9.801-0.2,14.7c0,0.101-0.3,0.4-0.399,0.4c-0.2,0-0.3-0.2-0.5-0.3
				c-2.4-11.801-3.2-23.801-2.3-36.2c0-0.101-0.601-0.4-0.9-0.7c-0.8-3.7-0.2-7.6-1.1-11.2c0.899-9.1,1.1-18.1,0.199-27.2
				c-1.6-1.5-1.699-4.1-1.6-6.6c0.4-15.8-2-31.4-1-47.2c0.3-4.2-1.5-0.2-1.8-1.6c-2.4-3.4-1.4-7.8-1.5-11.8
				c-0.1-6.4,0-12.801,0-19.2c-0.2-6.7,0.2-13.3,1.1-19.7c0.5-3.4,0.8-7.3,3.4-8.7c2.5,0.2,3.3,3.101,3.8,6.4
				c0,24.5,0.9,49,1.7,73.399C209,270.3,208.7,274.1,207.9,277.9z"/>
			<path fill="#F98D3C" d="M201.4,246.3c0.1-2.2,0.3-4.3,0.399-6.5c2,16.9,2.601,34,2.9,51.101c0.1,3.5-0.601,7.3,0.899,10.5
				c1.301,8.8,0.801,17.699,0.2,26.6c0.101,4-0.8,8.2,0.9,12c1.3,8.5,0.5,17,0.399,25.5c0,1.1-0.699,0.9-1.199,1.1
				c-0.5-3.8-0.9-7.6-1.4-11.399c-0.2-7.9,1.1-15.9-0.9-23.5c-1.399-15.3-2.3-30.7-2.699-46.2c-0.301-10.2-1.2-20.4-1-30.7
				C200,251.8,199.5,248.5,201.4,246.3z"/>
			<path fill="#CD5023" d="M205.9,366.6c2-8.699,0.5-17.8,0.8-26.6c0.1-1.4,0.2-2.8,0.3-4.1c1.1,13.6,0.6,27.3,1.9,40.899
				C207.8,373.4,206.9,370,205.9,366.6z"/>
			<path fill="#CD5023" d="M209.9,362c-1.9-7.8-0.601-15.9-0.9-23.9C211,345.9,209.7,354,209.9,362z"/>
			<path fill="#3D6031" d="M238.7,44.7c0.7-2.8,1.5-5.5,2.2-8.2c4.6-6,7.899-13.7,10.6-21.9c1.4,0.5,2.8,1,4.1,1.4
				c1.9-0.8,3.101,0,3.601,3.1c-3.5,11.8-7.601,22.8-14.9,29.7C242.4,47.7,240.4,46.7,238.7,44.7z"/>
			<path fill="#58434F" d="M259,19.2c-1.1-1.1-2.2-2.1-3.3-3.2c4.6-5.5,9.3-11,13.899-16.6C271.8,4.9,268.9,7,267,10
				c-2.2,3.3-6.2,3.1-6.9,9.2C259.7,19.9,259.3,19.9,259,19.2z"/>
			<path fill="#074435" d="M98.3,208.5c0,0.6,0,1.2-0.2,1.8c-0.2,0.7-0.4,1.3-0.9,2c-3-2.8-4.8-7.6-7.4-11.3
				c-0.1-0.1-0.1-0.2-0.2-0.3C81.8,187.4,74,174,66.1,160.5l0,0l0,0c0.2-0.4,0.4-0.6,0.7-0.8c0.1-0.1,0.2-0.2,0.3-0.2
				s0.1-0.1,0.2-0.1h0.1c0.8,0,1.4,0.3,2,0.7c0.5,0.4,1,0.9,1.5,1.5c0.7,0.9,1.3,2,1.9,3.1l0,0c0.4,0.6,0.8,1.3,1.2,1.8
				c1.2,1.7,2.3,3.6,3.4,5.3c1,1.4,2,2.8,3.2,3.8c0.5,0.7,0.9,1.4,1.4,2.1c1.7,2.7,3.4,5.5,5.3,8c0.9,1.3,2,2.5,3,3.5
				c0.6,1.7,1.4,3.2,2.2,4.6c1.6,2.9,3.4,5.601,4.5,9.101c0,0.399,0,0.8,0.1,1.199C97.7,205.7,98.2,207.1,98.3,208.5z"/>
			<path fill="#080816" d="M95.8,189.4c0,0.2,0,0.3,0,0.5c0,0.699-0.1,1.199-0.3,1.8c-0.1,0.399-0.3,0.8-0.6,1.1
				c-0.3-0.2-0.6-0.399-0.9-0.399c-0.3-0.2-0.5-0.301-0.7-0.5c-3.9-2.7-6.3-8.3-9.4-12.5c-0.5-0.7-1-1.4-1.6-2
				c-0.1-0.1-0.3-0.3-0.4-0.4c-4.5-5.5-8-12.6-12.4-18.3c0-0.1-0.1-0.1-0.1-0.1c-0.1-0.2-0.2-0.4-0.3-0.6c-0.1-0.1-0.1-0.3-0.2-0.4
				c-1.5-2.8-3.1-5.5-5-7.7c-1.1-1.2-2.1-2.5-2.4-4.4c-0.1-0.5-0.1-1.1-0.1-1.8c0-0.1,0-0.3,0-0.5v-0.1c1.2-3.3,2.9-2.3,4.5-1.8
				c0.3,0.1,0.7,0.2,1,0.2l0,0c0.1,0,0.1,0,0.2,0c0.5,0.2,1,0.5,1.5,1c0.1,0.2,0.3,0.4,0.4,0.6c0.1,0.2,0.2,0.4,0.4,0.6
				c0.4,0.7,0.8,1.4,1.2,2.1c0.3,0.5,0.6,1,0.9,1.5s0.6,1,0.9,1.5c0.3,0.5,0.6,1,0.9,1.6c5.4,9,11.1,17.6,16.6,26.4
				c0.7,1.1,1.4,2.1,2,3.3c1.5,2.5,2.9,5.2,3.6,8.6C95.7,188.9,95.8,189.2,95.8,189.4z"/>
			<path fill="#0A5F41" d="M121.5,242.7c-0.6,0.2-1.1,0.2-1.6,0.1c-1.1-0.2-2-1.1-2.9-2c-1.2-1.3-2.3-2.8-3.7-3.399
				c-2-3.4-3.9-7.101-6.5-9.601c-0.1-0.2-0.3-0.5-0.5-0.7c-3-4.899-6-9.8-9-14.699c0-1,0-1.9,0-2.9s0-1.9,0-2.9c0-0.8,0-1.6,0-2.399
				C105.7,216.5,113.7,229.4,121.5,242.7z"/>
			<path fill="#18272A" d="M111.3,210.7c-0.4,1.399-1.1,1.1-1.8,0.8s-1.3-0.4-1.6,1.1C103,206.9,99.3,199.4,95,192.7
				c0-0.5,0-1,0-1.4c0-0.8,0-1.5,0-2.2c0.2-0.2,0.4-0.3,0.7-0.4c1.2-0.4,2.4,0,3.5-0.2c0.3,0,0.5-0.1,0.8-0.2h0.1
				c1.3,0.4,2.1,1.7,2.2,3.8v0.101C104.4,199.5,108.2,204.7,111.3,210.7z"/>
			<path fill="#BBDF77" d="M97.1,203c-0.8-1-1.6-1.9-2.3-3c-1.9-2.6-3.5-5.4-5.1-8.5c-2.2-3.9-4.8-7.3-6.7-11.7
				c-0.3-0.7-0.8-1.4-0.9-2.1c-0.1-0.3-0.1-0.6,0-0.9c0.1-0.5,0.4-0.9,1.1-1.3c3.8,4.9,7.6,9.8,10.6,15.9c0.1,0.3,0.3,0.5,0.4,0.8
				C93.4,197,97.8,198.2,97.1,203z"/>
			<path fill="#030204" d="M211.4,112.8c-0.2,1.3-0.4,2.6-0.601,3.9c-2.8-0.3-3.2,3.3-4,6.2c-0.899,3-1.7,6-2.399,9.1
				c-2,8.5-4,17.1-5.8,25.7c-0.5,1.7-1,3.2-1.5,4.9c-2.3,7.9-1.3,16.3-1.4,24.5c-0.2,8,0.3,16-0.3,24c-0.6,3-0.9,6-0.8,9.101
				c0.7,19.899-0.9,39.5-2.5,59.1c-0.3,6.7-0.7,13.4-2.2,19.8c-0.1-0.899-0.2-1.8-0.4-2.699c-1.1-4.801-0.8-9.801-1-14.801
				c-0.6-27.5-0.4-55-0.5-82.5c0.1,26.301-0.2,52.5,0.5,78.801c0.1,2.8,1.2,7-2,8.199c-1.2-3.3-2.3-6.6-3.5-9.899
				c-2.8-12.101-2.8-25-4.7-37.4c-1,0.9-1.8,2.9-3.3,2.8c-1.2-0.399-1.8-1.8-2.4-3.199c-0.7-2.4-1.4-4.801-1.2-7.5
				c0.5-3.601,1-7.301,1.7-10.9c0.5-3.2,1.1-6.4,1.3-9.7c1.1-4.3,1.7-8.899,2-13.5c2.3-9.6,2.8-20,4.8-29.7
				c2.7-12.3,4.2-25.1,6.4-37.8c-2.3-0.9-4.1,3.5-6.1,0.3c-0.7-1.6-0.9-3.3-0.7-5.2c1.3-6.8-0.1-14.7,3.4-20.6
				c2.9-3.3,6.2-0.5,9.2-1.8c2.7-0.7,5.3-0.6,7.9,0.9c4.2,5-0.9,8.7-0.5,12.2c1-3.5,2.2-8.1,4.601-11.5c0.899-0.9,2-1.1,3.1-1.2
				c0.8,0,1.6,0.1,2.4,0.7c0.699,0.7,1.3,1.6,1,3.2C211.9,108.7,211.6,110.7,211.4,112.8z"/>
			<path fill="#446030" d="M199.3,286.3c-1.5-4.2-1-9-1.9-13.399c-0.4-6.101,0.8-12.5-1.2-18.5c-1.8,0.899-0.8,4.1-2,5.199
				c-1.4-16.1-0.5-32.3,0.2-48.399c0.5-6.101,0-12.101,0.3-18.2c3.1-2,3.1,2.4,3.2,4.6c0.3,5.801,1.7,11.301,2,17.101
				c-1.5,21.399,0,42.7,1,64.1C201,281.7,201.1,284.5,199.3,286.3z"/>
			<path fill="#347957" d="M195,210.7c-0.4,16.3-1.6,32.6-0.9,48.899c0,6.801-0.4,13.4-2,19.801c0.3-21.601,0.7-43.2,1.1-64.801
				c0-1.3,0.5-2.6,0.7-3.899C194.3,209.7,194.7,209.7,195,210.7z"/>
			<path fill="#0E497C" d="M67.1,160.3c-0.3,0.1-0.7,0.1-1,0.3c-4.7,1.5-1.5,6.5-1.8,10c-4.3-1.3-6.1-7.2-8.5-11.9
				c1.2-3.9-1.1-5.2-2.2-7.2c-1.6-2.8-3.6-5.1-2.9-9.6c0.3-1.2,0.9-2,1.7-2.3c3.1-0.4,4.4,3.9,6.4,6.1c1.8,3.8,4.5,5.8,6.7,9
				C66.5,156.1,68.1,157.2,67.1,160.3z"/>
			<path fill="#1D81AD" d="M51.3,142c1.4,7.2,6.3,10.1,8.4,16.8c-1.4,0.6-2.6-2-3.9-0.3c-0.7-1.1-1.4-2.2-2.2-3.3
				c-5.9-11.5-12.1-22.3-19.2-31.9c0.1-1.6,0.1-3.3,0.2-4.9c2.4-0.8,3.6,1.9,5.1,3.9c2.5,4.7,5.9,7.9,8.5,12.3
				C49.5,136.7,51,138.8,51.3,142z"/>
			<path fill="#0A2A62" d="M333.2,148.6c0.1-0.5,0.3-1,0.399-1.6c8.101-1.3,15.5,2.9,22.801,7.2c1.199,0.7,2.5,1.7,3.699,2.9
				c-1.5,2.7-4.1,3.8-4.3,8.2c-2.3,1.8-3.3,6.6-6.3,6.9c-1.7,1.5-3,0.1-4.3-1.3c-3-3.8-6.7-5.7-10-8.6c-1.9-1.7-4.2-2.9-4.8-6.9
				C331.3,153.2,332.3,150.9,333.2,148.6z"/>
			<path fill="#0599B2" d="M346.1,168.9c1.101,1.1,2.301,2.2,3.4,3.3c-1.9,8.8-7.6,12.8-10.5,20.2c-2,3-4,5.899-5.9,8.899
				c-2.1,1.2-3.5,6-6.3,2.8c-1.3-6.399,1.2-10.6,3.4-15c4.399-4.1,6.2-11.8,9.7-17.2C341.7,169.2,343.3,166.2,346.1,168.9z"/>
			<path fill="#070405" d="M320.8,222.5c-3.7,4.6-7.1,9.6-9.7,15.9c-0.8,1.3-1.699,2.6-3,2.399c-1.199-7.8,1.2-14.2,3.4-20.7
				c1.8-3,4.5-3.1,6.7-4.6c1.6-0.5,3.1-2,4.6,0.2C324,219.4,320.9,219.9,320.8,222.5z"/>
			<path fill="#E78F5F" d="M322.8,215.7c-1.399,0.7-2.8,1.399-4.3,2.1c-2.8,1.2-2.7-1.1-1.8-3.899c0.6-2,1.899-3.2,3-4.5
				c2.3-1.801,4-5.2,6.7-5.601c2.6,1.8,3.899-4.3,6.5-2.5C330.1,207,327.2,212.8,322.8,215.7z"/>
			<path fill="#0660A1" d="M32.2,101.6c2.6-4.5,5.1-8.9,7.7-13.4C46.5,78,53.2,67.8,59.8,57.5c0.5-0.8,0.9-1.7,0.3-2.9
				c1.2-1.6,2.3-3.1,3.4-4.7c2.3,1,0.6,2.4,0.1,3.3c-7.2,13.1-14.4,26-21.6,39.1c-1.6,2.9-3,6.2-4.5,9.3c-1.4,2.5-0.2,6.6-2,8.8
				c-0.6,0.2-0.9-0.2-1-1.1C32.6,107.6,32.9,104.3,32.2,101.6z"/>
			<path fill="#6D9DB3" d="M34.4,109.5c0.3,0.2,0.7,0.5,1,0.7c1.6-0.1,2.2,2.5,3.5,3.3c0.4,0.4,0.8,0.8,1.2,1.4
				c1.2,2.5,3.1,4.5,2.1,8.4c-1.1,2-2.3,1.6-3.5,0.5c-1.4-1.8-2.7-3.6-4.1-5.5C34.5,115.4,34.4,112.5,34.4,109.5z"/>
			<path fill="#0C40A8" d="M360.1,157.2c-8.899-2.8-17.8-5.5-26.5-10.1c1-2.8,2-5.5,2.9-8.3c3.8-9.4,7.7-18.8,11.5-28.3
				c0.8-2.1,2.4-4.4,0.7-7.3c-0.2-0.4-0.3-0.8-0.4-1.3c0.3-0.1,0.7-0.1,1-0.1c3-2.5,5.8-2,8.5,1.3c6.4,0.2,12.8,0.4,19.2,0.6
				c-3.9,14.6-10.6,26.6-14.9,40.8c-0.899,3-2.399,5.6-3.199,8.6c-0.7,2.7,1,2,1.899,2.3C360.7,156,360.4,156.6,360.1,157.2z"/>
			<path fill="#0380C0" d="M117.4,19.8c8.7-4.5,11.6-15.9,13.7-28.2c12.4-0.1,24.9-0.1,37.3-0.2c3.1,3.4,3.9,7.9,2.8,13.4
				c-0.7,1.6-1.6,2.7-2.7,3.5c-6.6,3.2-13.4,4.5-20.2,5.3c-2.1,0.2-3.9-0.9-5.3-3.1c-3.6-5.8-5.2-2.4-6.7,3
				c-2.1,7-4.4,13.9-6.6,20.8c-0.9,2.7-1.8,5.4-3.7,6.8c-0.8,0.5-1.6,0.6-2.4,0.5c-1.7-0.5-3.4-1.4-5.1-2c-6.2-2.2-7.5-7.7-3.5-15.6
				C115.6,22.4,116.8,21.6,117.4,19.8z"/>
			<path fill="#FA7F73" d="M208-6.9c-1,9.6-2.4,19.1-4.3,28.3c-2.9,1.3-5.6,4.2-8.9,2.4c-2.1-1.8-2.3-5.5-3.3-8.3
				c-0.8-3.9-2-7.6-2.1-11.8c4.1-6.4,9.9-6,14.8-9.2C205.4-6,206.7-6.4,208-6.9z"/>
			<path fill="#036BB2" d="M170.7,4.2c-0.7-4.3-1.5-8.6-2.2-12.9c2.9-0.1,5.9,0.2,8.8-0.3c4.3-0.6,6.9,2.4,8.3,8.5
				C182.3,6.9,175.8,9,170.7,4.2z"/>
			<path fill="#2D466E" d="M170.7,4.2c5.2,0.6,10.1-1.7,14.9-4.7c6.4,0.3,12.2-5,18.6-5.1c-4.5,4.4-9.8,5.7-14.5,9.4
				c-0.7,3.4-2.7,4.1-4.5,4.9c-2.1,1.2-4,3.2-6.3,3c-3.5-1.5-7.4-1.3-10.1-6.1C169.4,5.3,170,4.8,170.7,4.2z"/>
			<path fill="#F5E858" d="M207.8,51.2c-0.899,4-3.7,6.4-3.899,11.1c1.6,3,1,6.2,0.1,9.3c-1.4,5.2-2.7,10.5-5.1,14.9
				c-1.3-1.5-2.7-3-4-4.5c-0.9,0-1.4-0.9-1.7-2.1c-0.3-3.5,0.5-6.6,1.7-9.5c1.1-4.9,1.3-10.2,2.5-15.1c0.3-0.6,0.7-1.1,1.1-1.5
				c3.2-0.8,3.2-6.1,5-8.9c0.9-1.3,1.9-3.2,3.1-1.8c1.101,1.3,0.7,3.4-0.1,5.1C207.1,49.3,207.4,50.2,207.8,51.2z"/>
			<path fill="#D49038" d="M206.7,48.3c-0.101-1.3-0.101-2.7-0.2-4.6c-2.7,3.2-3.1,8-4.9,11.3c-0.899,1.8-1.8,3.1-2.399-0.3
				c-1.8-3.8-0.9-7.6,0-11.4c0.5-1.7,1.3-3,2.5-3.4c0.899-2.9,1.8-5.8,2.7-8.7c-0.101,5.6,2.8,8.4,4.5,12.2
				C208.2,45.1,208.2,47.6,206.7,48.3z"/>
			<path fill="#462D27" d="M199.3,286.3c0.3-14.7-0.7-29.399-1.9-43.899c-0.7-9.601,2.5-18.5,2-28c0.2-0.9,0.4-1,0.8-0.2
				c1,10.7-0.4,21.6,1.2,32.2c0.699,28.399,1.5,56.899,2.199,85.3C200.9,316.8,200.4,301.5,199.3,286.3z"/>
			<path fill="#801E16" d="M155.8,220.8c-0.7-2.2-1.5-4.5-2.2-6.7c0.4-1.3,0.1-3.199,1.3-3.8c2.5-0.1,3.2,3.2,4.2,5.7
				c1.2,3.3,2.6,6.4,4,9.4c3.5,8.699,6.9,17.5,11.4,25.1c0.4,0.5,0.8,1,1.1,1.6c1.3,4.9,4.9,7.7,5,13.7c-0.3,1.2-0.8,2-1.6,2.2
				c-0.4,0.1-0.8,0.1-1.2,0.2c-3.8-1.4-4.6-7.2-6.4-11.2C166.2,245,161.1,232.8,155.8,220.8z"/>
			<path fill="#0A0C33" d="M102.3,192.2c-0.6-1-1.3-2-1.9-3.1c-3.2-1.4-5.5-4.9-7.8-8.3c-6.2-9.1-11.7-19.2-18.2-27.9
				c-0.8-1.1-1.3-2.6-0.9-4.4c2.8-3.3,5-0.2,7.1,2.2c3.9,4.3,6.8,10.2,9.4,16.4c-0.9-2.5-1.9-4.8-0.3-7.5c5,9.3,10,18.6,15,28
				c2.3,4.4,4.5,8.8,6.8,13.2c1.5,0.5,1,2,0.7,3.5C107.9,202.2,106.8,193.8,102.3,192.2z"/>
			<path fill="#EB9337" d="M112.2,204.2c-0.2-1.2-0.4-2.3-0.7-3.5c3.8,0.399,6,5.2,9,8c1.5,1.5,0.9,3.2-0.1,4.7
				c-1.1,1.5-2.1,3.3-3.4,0.5C115.4,210.8,114.6,206.5,112.2,204.2z"/>
			<path fill="#084D9E" d="M117.4,19.8c-0.3,5.5-4.7,10.6-3,15.1c1.5,4,6.5,1.5,9.5,4.6c-1,3.5-3.5,3.1-5.2,4.9c-2.7,1-4.3-2-6.2-4
				c-1.2-1.2-2.1-3.2-3.5-4c-0.9-0.9-1.5-2-1.9-3.6c0.3-7.6,4-12.6,6-18.9c1.5-4.6,3.8-8.8,3.2-14.5c1.8-3.2,2.9-0.5,4.1,1.3
				c-1.5,5.5-3,11-4.5,16.5C115.1,20,115.6,20.7,117.4,19.8z"/>
			<path fill="#510A08" d="M186.7,286.2c2-6.7,1.1-13.8,0.7-20.5c-1.5-21.8-0.4-43.5-0.8-65.3c-0.1-3.5,0.6-7,3-11.5
				c0,37.1,0,72.4,0,107.7C188.1,293.5,187.1,290.1,186.7,286.2z"/>
			<path fill="#610F0A" d="M179.1,267.9c0.3-0.601,0.6-1.101,1-1.7c-0.2-6.3-3.7-10.3-4.6-16.101c-0.8-2.899-2.4-5.699-0.4-8.899
				c2.6-2.101,2.4-7.2,4.8-10.7c0.8,15.8,3.8,30.5,3.3,45.9C181.8,273.5,180.5,270.7,179.1,267.9z"/>
			<path fill="#066DB1" d="M102.6,41.9c-2.1,6.6-4.1,13.2-6.2,19.7c-0.7-16.1-1.5-32.3-2.2-48.4c2.7-1.4,5.4-2.8,8.1-4.1
				c4,7.5,2.2,15.9,1.6,24.1C103.7,36.2,102.3,38.7,102.6,41.9z"/>
			<path fill="#ED9469" d="M312.5,220.9c-1.5,6.6-2.9,13.3-4.4,19.899c-0.399,1.2-0.699,2.4-1.1,3.5c-1.7-11.899,0.9-23.2,1.9-34.8
				c1.3-3.5,2.5-7,3.8-10.5C316.4,206.4,314.5,213.7,312.5,220.9z"/>
			<path fill="#030311" d="M308.9,209.5c0.6,11.8-2.7,23-1.9,34.8c-2.7-4.1-1.2-9.3-1.1-13.899c0-5.4,0.6-10.9,0.899-16.301
				C307.5,212.6,308.2,211.1,308.9,209.5z"/>
			<path fill="#08F6F8" d="M210.8,105.2c-0.6-0.1-1.2-0.2-1.8-0.2c-6-1.3-11.4-5-16.7-9.5c-8.3-6.9-16.7-13.4-25.1-20
				c-2.1-1.6-4.2-3.1-5.7-6c-1.6-3.8-0.6-6.5,1.6-8.6c7,1.7,12.7,7.1,17.4,15.5c8.5,7.7,17,15.5,25.6,23.2
				c0.601,0.2,1.301,0.4,1.9,0.5c0.2,0,0.5,0,0.7,0C210.4,100.7,211.8,101.6,210.8,105.2z"/>
			<path fill="#09E5E0" d="M187.5,76.9c-1.7-1.3-3.4-2.6-5.1-3.8c-4.8-1.1-8.7-5.1-11.9-10.6c-1.6-6.2-5.4-9.3-8.1-13.9
				c-1.6-2.8-3.9-5.7-0.7-9.5c3.5-0.5,5.5,3.9,8.1,6.4c1.9,1.8,3.5,4.6,5.8,5.4c4.9,3.7,8.6,9.5,11.5,16.6c0.5,1.8,1.3,3.3,1.8,5.1
				C189.4,74.3,190.1,77,187.5,76.9z"/>
			<path fill="#4BF5E7" d="M171.7,61.5c3.2,4.8,7.8,6.3,10.7,11.5c-0.7,1.1-1.3,2.2-2,3.3c-5.7-5-11.4-10-17.1-15
				c-1.4-3.3,0-4.8,1.6-6.1C168.1,54.8,169.9,58.1,171.7,61.5z"/>
			<path fill="#F46E2B" d="M199,86.6c1.6-8.1,3.3-16.2,4.9-24.2c2-2,4-4,6-6.1c-0.4,8.3-4.2,14.5-5.7,22.1c-1.3,3.3-2.5,6.7-3.8,10
				C199.9,87.8,199.5,87.2,199,86.6z"/>
			<path fill="#37F7EB" d="M187.5,76.9c2-4.4-3-5-2-8.9c2-1,3.3,0.9,4.7,2.5c1.7,2.7,3.1,5.8,3.8,9.6c0.3,0.7,0.6,1.3,1,2
				C191.5,83.8,190,78.8,187.5,76.9z"/>
			<path fill="#06A7CE" d="M102.6,41.9c-1.4-7.3,0.5-14.7-0.1-22c-0.3-3.6-0.2-7.2-0.2-10.8c0.1-0.4,0.2-0.9,0.3-1.2
				c1.4-1,2.8-2.1,4.2-3.1c1-0.2,2-0.4,3-0.7c1.9,3.2,1.2,7.5,2.1,11.1c-0.4,6.4-3.8,10.9-4.6,17.1c-0.1,0.8-0.4,1.5-0.8,2.1
				c-0.2,0.1-0.5,0.3-0.7,0.4C104.7,37.2,103.7,39.6,102.6,41.9z"/>
			<path fill="#086DB9" d="M106.8,32.5c0.5-6,2.4-11.2,4.2-16.3c-0.8-2.8-0.1-4.9,1.3-6.7c2.2-2.2,3-5.5,3.2-9.4
				c0.3-0.3,0.6-0.5,1-0.6c3.6,6.3-0.3,10.9-1.7,15.7c-1.8,6.2-4.6,11.7-7,17.5C107.3,33.3,107,33.3,106.8,32.5z"/>
			<path fill="#23D5E3" d="M112.2,9.4c-0.4,2.2-0.8,4.5-1.3,6.7c-1.9-3.7-0.5-8.1-1.1-12C113.9,2.3,111.3,7.8,112.2,9.4z"/>
			<path fill="#F8978D" d="M201.7,40c-0.4,1.1-0.7,2.2-1.101,3.3c-4.6-3.9-6.7-12.1-5.399-20.4c2.9,0.2,5.3-6.1,8.399-1.5
				C203,27.6,202.3,33.8,201.7,40z"/>
			<path fill="#6C2C18" d="M218.5,74.9c0.7,0.6,1.5,1.2,2.2,1.8c0,10-7.4,23.5-12.8,23.6V100C211.4,91.7,214.9,83.3,218.5,74.9z"/>
			<path fill="#95D15F" d="M207.9,100.4c6.199-5.3,8.8-15.4,12.8-23.6c1-1.4,1.3-4.2,3.1-3.8c5.601,1.9,6.5,5.3,2.9,11.8
				c-1.101,2.1-2.4,3.9-3.4,6.2c-1.8,4.7-4.7,7.7-6.899,11.7c-0.7,0.8-1.7,1.2-2.2,2.6c-0.7,0.5-1.4,0.9-2.101,1.4
				c-0.399-0.5-0.899-1-1.3-1.5C210.5,102.6,208.7,102.2,207.9,100.4z"/>
			<path fill="#73A64E" d="M221.8,90.3c0.8-1.7,1.4-3.8,2.4-5.1c3.7-4.5,4-8.5-0.4-12.2c0.9-7.1,4.7-11.2,7.2-16.7
				c0.1,0.2,0.2,0.4,0.3,0.7c2,2.9,5.2,4.2,5.3,9.6c-0.6,6.2-5.1,8.4-6,14.2c-0.6,2.3-1.699,4.1-2.399,6.2
				C226.3,89.7,224.7,92.8,221.8,90.3z"/>
			<path fill="#5A823C" d="M235.5,66.4c0.3-5-5.8-3.1-4.3-9.5c3.1-3.1,4.6-8.6,7.399-12.2c2.801-2.3,4.9-1.9,5.601,3.7
				C243.5,57,240.8,63.2,235.5,66.4z"/>
			<path fill="#C5862E" d="M249.6,236c1.601-3.1,2.2-6.9,3-10.5c10-26.1,20.101-52.1,30.101-78.2c2.6,0.5,3,4.2,2.899,6.8
				c-0.399,7.8,2.101,13.2,5.301,18.1C275.3,202.7,259.3,232.8,245.1,265.1c-0.8,1.801-2.1,2.9-3.199,4.4
				C243.6,257.9,248,247.7,249.6,236z"/>
			<path fill="#B37727" d="M290.9,172.2c-5.301-1.9-7.4-6-6.801-13.7c0.301-4.1-0.5-7.6-1.399-11.2
				c5.5-14.5,10.899-29.1,16.399-43.6c0.5,0,0.9-0.1,1.4-0.1c1.6,2.8,1.2,6.3,1.1,9.5c-0.5,8.5-0.5,17.1-0.699,25.6
				c-0.9,4.4-0.101,8.8-0.301,13.2c-0.199,3.8,0.101,7.9-2.399,10.4C295.7,165.6,293.3,168.9,290.9,172.2z"/>
			<path fill="#3F1E10" d="M298.1,162.3c0.801-7.9-0.5-16,1.2-23.8c1.9-3.1,1.3-7.2,1.7-10.9c0.3-2.9-0.2-7.3,2.3-7.1
				c2.101,0.2,2.2,4.5,2.3,7.5c0.301,13.3,0.4,26.5-3.199,39c-1.101,3.5-2.2,6.9-4.101,9.5C298.3,171.8,298.2,167,298.1,162.3z"/>
			<path fill="#19050D" d="M327,103.4c4.4,0,8.7,0,13.1,0c-0.1,0.3-0.1,0.7,0,1c-9.199,16.3-18.5,32.6-27.8,48.9
				c-1.399,2.4-2.2,5.6-4.399,6.8c-1.601-2.4-1-5.2-0.301-7.8c1.9-6.9,3.301-14.2,5.301-21c2.199-4.8,2.6-10.8,4.199-15.9
				c1.301-4.2,2.101-8.8,4.801-11.6C323.5,103.8,325.2,103.6,327,103.4z"/>
			<path fill="#06030A" d="M302.4,167c-0.101-10.9,2.199-21.6,1.3-32.7c-0.3-3.8,0-7.7-0.7-11.7c-0.5,5.2-1,10.3-1.5,15.5
				c-0.4,4.1-1.3,3.5-2.2,0.3c0.3-11.7-0.5-23.4,1.2-35c4.9,0.1,9.8,0.2,14.8,0.2c2.4,4.1,0.5,8.2-0.1,12.2
				c-0.4,3.2-0.9,6.3-1.601,9.4c-2.399,10.4-4.3,21-6.899,31.3c-0.8,3.2-1.7,6-3.101,8.5C303.2,165.8,302.8,166.4,302.4,167z"/>
			<path fill="#6F110A" d="M303.6,165.2c2.601-13.5,4.7-27.3,8.5-40.2c3.5,0.1,3.101,3.4,2.301,7c-1.301,9.9-5.301,18.2-6.5,28.2
				C306.5,161.9,305,163.6,303.6,165.2z"/>
			<path fill="#030532" d="M326.5,203.8c-1,4.101-3.4,5.8-5.7,7.601c-4.5-2.4-4.2-8.5-4.3-14.2c-0.1-4.101,1-7.9,1.9-11.7
				c0.199-1.6,0.5-3.1,0.699-4.7c0.4-0.8,0.801-1.5,1.2-2.3c1-6.5,2.7-12.3,6.9-15.2c3.899,3.8,5.1,10.5,6.7,16.6
				c1.3,4.7-1.601,7.4-3,10.7C329.5,195,328,199.4,326.5,203.8z"/>
			<path fill="#0F0915" d="M318.5,185.5c0.2,8.8-1.3,17.9,2.3,25.9c-1.2,1.399-2.6,2.5-3.5,4.3c-1.5,2.899,0.8,1.399,1.2,2.1
				c-2,1-4.1,2.101-6.1,3.101c0.1-7.301,0.199-14.601,0.3-21.9C314.6,194.5,316.6,190,318.5,185.5z"/>
			<path fill="#6D9764" d="M327,164.4c-3,3.7-3.3,10.7-6.5,14.1c-1.1-3.3-0.8-6.5,0.3-9.7c2.9-3.2,4.7-8.7,8.2-10.8
				C329.5,161.1,328.8,163.2,327,164.4z"/>
			<path fill="#0372B2" d="M327,164.4c0.6-2.1,1.3-4.2,1.9-6.3c0.5-0.9,1-1.7,1.5-2.6c5.199,4.5,10.8,7.9,15.699,13.4
				c-5.1,0.5-6.1,8.5-9,12.7c-2,2.9-3.3,7.2-6.1,8.9C335.3,179.7,329.3,172.7,327,164.4z"/>
			<path fill="#490907" d="M314.4,132c0-3-0.5-5.5-2.301-7c-0.1-7.5,2.801-13.9,3.2-21.3c2.2,0.1,4.4,0.1,6.601,0.2
				C319.7,113.5,317.7,123.2,314.4,132z"/>
			<path fill="#D99A49" d="M287.6,91.4c0-4.8,0-9.7,0-14.5c0.101-1.6,0.301-3.3,0.301-4.9c0.1-4.5,2.1-6.7,4.399-6.5
				c2.4,0.1,2.5,4.1,2.4,7c-0.101,2-0.2,3.8,0.399,5.5c-0.5,1.2-1.1,2.3-1.6,3.5c0.1,2.4-0.6,4.4-1.4,6.3
				c-1.1,1.4-1.8,3.6-3.199,4.5C288.3,92.3,287.9,92,287.6,91.4z"/>
			<path fill="#092E57" d="M290.9,86.9c0.8-1.8,1.699-3.6,2.5-5.4c1.6,7.2,0,14.6,0.699,21.8c-2.1,0-4.199-0.1-6.199-0.1
				c-1.4-2.2-1.4-4.4,0-6.6c0.199-1.5,1.699,2.5,1.699-1C289.5,92.6,289.7,89.5,290.9,86.9z"/>
			<path fill="#08050A" d="M235.5,66.4c2.9-6,5.8-12,8.7-18c4.899-9.7,9.8-19.5,14.8-29.2c0.4,0,0.7,0.1,1.1,0.1
				c1.601,1.1,3.101,2.1,4.7,3.2c0.601,4-1.5,5.8-2.8,8.2c-3.1,5.5-7,9.8-9.4,16.4c-2.399,4.3-4.899,8.5-7.5,12.6
				c-2.899,3.4-5.1,8-7.699,12c-2.9,2.5-4,9.4-8.301,8.5C230.2,74.4,233.8,71.5,235.5,66.4z"/>
			<path fill="#798C9C" d="M268.4,26.1c0.5,5,3.5,9.4,1.199,14.9c-3.8,9.2-9.199,14.9-16.1,16.8c-5-3.6-2-8.4-0.7-12.9
				C255.9,39,259.5,34,262.9,28.6c0.899-1.5,1.8-3.6,3.5-2.2C267.1,26.3,267.7,26.2,268.4,26.1z"/>
			<path fill="#B9372B" d="M266.4,26.4c-4.2,6.2-8.4,12.4-12.601,18.7c-0.899,1.7-1.899,3.1-3.5,2.6c4.9-8.4,9.7-16.7,14.601-25.1
				C266.6,22.5,267.4,23.5,266.4,26.4z"/>
			<path fill="#020204" d="M253.8,57.1c5.3-5.4,10.5-10.7,15.8-16.1c4.2,3.9,2.9,11.9,5.101,17.4c0.5,2.8,1,5.6,1.5,8.4
				c0.7,4.8-1.601,6.1-3.601,7.7s-4.199,2.5-6.3,3.9c-1.899,1.9-4,3.3-5.8,5.5c-2.7,4.7-6.7,4.7-10.1,6.9
				c-7.7,5-15.101,10.8-22.7,16.2c-1.3,0.5-2.601,0.4-3.8-0.8c-1.7-3.7-0.5-5.8,1-7.2c-2.9,1.5-6,7.5-10.2,2.7
				c2.3-3.8,4.7-7.6,7-11.4c2.2-0.4,3.899-2,5.2-4.7c3.1-4.9,6.8-8.7,10-13.6c1.8-1.9,3.8-3.3,5.399-5.6
				C246.1,63.2,248.9,56.9,253.8,57.1z"/>
			<path fill="#07113E" d="M288.6,96.6c-1.199,1.9-0.899,4.3-0.8,6.6c-1.399,0.6-2.8,1.3-4.1,1.9c-1.3,0.4-2.5,0.5-3.5-1.1
				c-1.3-3.9,1.3-8.1-0.3-11.9c-0.301-3.8-1.7-6.9-2.301-10.5c0-1.8,0.7-2.9,1.5-3.9c0.101-0.9,0.2-1.9,0.301-2.8
				c1.8-3.5,1.3-8.4,3.1-11.8c1.7,9.4,3.4,18.8,5.1,28.3c0.301-0.1,0.601,0,0.9,0.1C289.8,93.1,289.7,94.8,288.6,96.6z"/>
			<path fill="#0A2F69" d="M282.4,63.1c-0.2,4.4,0.8,9.7-3.101,11.8c0.3-6.3,0.5-12.7,1.9-18.7C281.7,58.5,282.1,60.8,282.4,63.1z"
				/>
			<path fill="#051E55" d="M279.1,77.7c-0.3,1.3-0.699,2.6-1,3.9c-0.899,7.1-4.8,10.4-7.8,14.9c-2.2,3.3-4.7,6.3-7.2,9.3
				c-1.1,0.2-2-0.6-2.699-1.9c-2.101-6.6-0.101-12.1,1.8-17.8c1-3.1,2.5-5.9,3.1-9.4c3.3-4.4,8.5-3.3,10.9-9.9
				C277.2,70.4,278.2,74,279.1,77.7z"/>
			<path fill="#055763" d="M277,130.2c-0.7,2.2-1.4,4.5-2.2,6.7c-3.5,1.3-5.899,4-7.3,9.9c-1,4.2-2.7,8.5-6.4,8.4
				c-3.5-1.1-5-6-7-9.7c-6.8-12.2-6.8-12.2-14-1.4c-0.5,0.3-1,0.4-1.6,0.2c-1.7-0.9-2.7-2.8-3.1-5.6c-0.2-3.4,0.899-5.7,2.3-7.9
				c1.7-1.8,3.2-4.1,5.2-5.2c5.1,2,9.3-1.3,13.3-5.6c5.2-3.7,10.7-6.9,12-17.4c1.3-1.8,2.899-2.5,4.6-2.2c1.4,0.6,2.9,1.2,3.8,3.3
				c1.5,3.5,0.801,7.4,0.801,11.2C278.4,120.1,276.8,125.1,277,130.2z"/>
			<path fill="#F73224" d="M264.3,177.2c-2.3,13.399-4.3,27-11.899,36.2c-3.601,4.399-7,9.3-10.5,14
				c-1.601-3.801-0.101-7,0.899-10.101c2.5-8.3,5.2-16.5,7.9-24.6c3.3-10.2,3.1-10.8-4-14.1c-0.9-0.4-1.7-0.5-2.601-0.8
				c-4.899-2.2-6.3-7.7-5.8-15.1c0-1.8,0.101-3.7,0.8-5.2c2-2.9,4-1.4,5.801,0.2c4.1,3.6,8.399,6.7,12.5,10.5
				C259.8,170.9,263.5,171.3,264.3,177.2z"/>
			<path fill="#FA8C4A" d="M245.1,175.6c12.2,2.9,12.2,3.1,6.4,20.2c-3.5,10.3-6.5,21-9.7,31.5c-1.2,2-2.2,4.601-4.1,5.3
				c-3.2-6.5-1-14-1.601-20.899c0-0.9,0.101-1.9,0.2-2.8c0.7-2.4,0.8-5.301,2.101-7.301c6.8-5.399,6.8-5.399,5.8-17.399
				C243.9,181.3,243.4,178.2,245.1,175.6z"/>
			<path fill="#0FD6C0" d="M223.8,185.8c-0.7-5-1.5-10.1-2.2-15.1c0.801-1.6,1.801-1.7,3-1.4c0.5,0.3,1,0.7,1.301,1.3
				c2.699,7.2,4.399,14.8,4.899,22c0.8-4.2-0.899-11.5,3.9-14.5c0.6,0.1,1,0.6,1.399,1.3c0.7,4.7,0.301,9.4-0.699,13.7
				c-1.7,7.7-1.601,15,0.5,22.301c-0.5,6.3,1.899,13.199-1.801,18.699c-2-7.6-1.899-16.399-5.5-23.1
				C228.3,202,225.6,194.1,223.8,185.8z"/>
			<path fill="#03444F" d="M261.1,153.8c3.7-1.2,5.101-6.4,5.801-10.9c1.199-8.2,3.399-10.1,7.899-6c-1.7,10-4.2,19.5-7.3,28.7
				c-3.9-0.3-5.2-5.3-6.8-9.6C260.7,155.2,260.8,154.4,261.1,153.8z"/>
			<path fill="#8DEDCD" d="M234.1,234.2c0.7-6.7,0.4-13.5,0.301-20.2c-1.101-11.7,0.6-23.2,1.699-34.6
				c0.101-1.7,0.601-2.7,1.801-2.1c1.899,3.3,1.1,7.4,1.3,11.2c0.7,7.2-1.2,13.8-1.601,20.8v-0.2c-1.6,8.4,0.301,17.2-1.1,25.601
				c-0.2,1.899-0.3,3.8-0.5,5.899C234.2,239.4,234.7,236.4,234.1,234.2z"/>
			<path fill="#061E55" d="M261.1,155.4c2.7,2.5,4.301,6.7,6.4,10.2c-0.4,2.2-0.9,4.4-1.3,6.7c-2.601,1.6-4.3-1.4-6.101-3.4
				c-1.899-2.6-4.8-4-5-9C256.9,152,257.4,151.7,261.1,155.4z"/>
			<path fill="#0792A6" d="M276.1,115c-0.1-3.7-0.1-7.4-0.199-11.1c1.3-2.5,2.8-2.5,4.3-0.4c1.3,0.2,2.7-0.5,3.6,1.6
				c-0.8,2.3-1.5,4.5-2.3,6.8C279.9,114.3,278.8,118.1,276.1,115z"/>
			<path fill="#05619E" d="M276.1,115c2.101,0.2,3.5-2.3,5.4-3.1c-1,6.4-2.5,12.5-4.4,18.3C275,125.4,276.3,120.1,276.1,115z"/>
			<path fill="#731922" d="M261,167c1.7,1.8,3.5,3.5,5.2,5.3c0.2,2.5-1.101,3.5-1.9,5c-2.5-2.2-5-4.4-7.5-6.6
				C257.5,167.2,258.7,165.6,261,167z"/>
			<path fill="#41A7AA" d="M236.7,234.7c-0.101-8.601-1-17.3,1.1-25.601c0,7.9,0,15.7,0,23.601C237.4,233.3,237.1,234,236.7,234.7z"
				/>
			<path fill="#4AB5AB" d="M225,170.5c-1.1,0-2.3,0.1-3.4,0.1c-1-1.4-0.899-3.5-1.199-5.4c1.199,0.6,2.399,1.2,3.6,1.8
				C225.5,167.3,225.5,168.7,225,170.5z"/>
			<path fill="#050626" d="M357.9,103.1c-2.9,0.5-5.801,1.6-8.5-1.3c0.699-4.2-0.9-7.8-1.301-11.7c0-1.6,0-3.2,0.101-4.9
				c4.5-1.1,6.399,5.7,9.7,8.1c0.699,1.1,1.399,2.3,2.1,3.4C359.3,98.9,358.6,101,357.9,103.1z"/>
			<path fill="#4B1113" d="M154.7,210.3c-0.1,1.4-0.2,2.9-1,3.8c-9.7-22.3-19.4-44.6-29-66.899c-4.8-14.8-11.7-27.4-16.9-41.7
				c0.1-0.5,0.1-0.9,0.1-1.4c0.4-1.4,1.1-1.6,2-1.6c4.2,4.4,6.5,11.5,9.3,17.7c12,26.4,22.9,54,34.2,81.2
				C154.3,203.9,156.3,206.5,154.7,210.3z"/>
			<path fill="#0D3CA8" d="M110,104.1c-0.7,0-1.5,0-2.2-0.1c-1.1,0-2.1,0-3.2,0.1c-1.4-0.2-2.8-0.5-4.2-0.7
				c5.7-6.7,11.4-13.3,17.1-20c1.5-5.1,3.5-9.2,7.6-8.6c1.4,3.4,0.2,6.3-0.7,9.2c-1,2.7-1.4,5.8-2.3,8.6c-2,4-2.7,9.6-5.8,12.4
				c-0.7,0.6-1.5,0.8-2.4,0.8C112.4,106.2,111.3,104.5,110,104.1z"/>
			<path fill="#047BC7" d="M124.9,75.2c-2.5,2.8-5,5.5-7.5,8.3c-1.3-4.1-1.7-8,1.8-9.7c3.9-1.9,3.8-4.7,1.1-8.4
				c-1.2-1.7-1.5-3.6-1-5.9c-3.6-6.1-7.6-11.8-6.5-21.4c2,1.2,3.1,4.7,5.4,5.2c0.8-0.1,1.5,0.2,2.1,0.9c2.3,3.3,4.5,6.7,7.9,3.3
				c1.9-1.7,3.7-3.5,5.6-5.2c2.1-2.2,4.1-5,7-3c1.7,3.6,0.1,6.2-1.1,8.9c-2.7,6.2-6,11.4-9.7,16.1c-1.8,2.3-3.3,4.8-3.6,8.7
				C126.2,74,125.7,74.8,124.9,75.2z"/>
			<path fill="#040837" d="M112.9,38c1.1,8,5.5,13.4,6.5,21.4c-2.8,2.4-5.6,4.9-8.4,7.3c-2.2-2-2.1-5.4-2-8.7
				c0.2-5.5-0.2-10.9-1-16.3c0.2-2.8,0.5-5.4,2.1-7.2C111.5,34.8,112,36.9,112.9,38z"/>
			<path fill="#0F0B1B" d="M108.9,41.6c2.7,2.8,2,7.1,2.2,11.2c0.2,4.7-0.9,9.3,0,13.9c-1.6,2.1-3.2,4.2-5.2,5.1
				c0-12.3,0-24.6-0.1-37l-0.1-0.2C108.7,34.7,109.1,37.7,108.9,41.6z"/>
			<path fill="#83637A" d="M91.8,85.3c2.6-12,6.6-23,10.7-33.9c0.9,10.7,0.4,20.7-4.9,28.8C95.6,81.9,93.7,83.6,91.8,85.3z"/>
			<path fill="#191025" d="M97.5,80.2c2.2-9.3,4.1-18.8,4.9-28.8c1.6,1.8,0.9,4.7,1.3,7.1c0.3,5.5,1.3,11-0.7,16.2
				C101.2,76.6,99.4,78.4,97.5,80.2z"/>
			<path fill="#DE9B8C" d="M103,74.8c0.2-5.4,0.5-10.8,0.7-16.2c2.4,4.4,0.3,9.7,1.1,14.4C104.2,73.5,103.6,74.2,103,74.8z"/>
			<path fill="#0A2A6E" d="M89.7,159.6c-0.3,5.8,4.4,7.7,4.4,14c-3.7-1.6-5.6-5.8-7.7-9.8c-3.4-6.6-6.8-13.6-12.7-15
				c-1.8,0.8-2.3-0.9-2.5-3.1c1.7-4,3.7-7.4,6.7-8.9c1.1,1.8,2.2,3.5,3.3,5.3C84.1,147.8,86.9,153.7,89.7,159.6z"/>
			<path fill="#0A4AA2" d="M78,136.7c-1.4,4.3-3,8.1-6.4,8.9c-1.2,0.9-1.9-0.1-2.6-1.4c-1.2-2.4-3.8-3.2-3.5-7.4
				c1.4-5.3,3.3-10,6.2-13.6c1.5,0.2,1.7,1.5,1.3,3.4C73.4,131.4,76.9,132.6,78,136.7z"/>
			<path fill="#7DA3C3" d="M72.9,126.5c-0.4-1-0.9-2.1-1.3-3.1c-0.5-0.5-0.9-1.3-1.2-2.2c-0.7-4-1.8-7.9-2-11.9
				c-0.2-4.3,0-9.1,4.3-5.5c0.4,0.4,0.8,0.8,1.1,1.2c0,0.5,0.1,1,0.2,1.5C72.6,113.1,74.9,120.1,72.9,126.5z"/>
			<path fill="#DC9A65" d="M207.9,277.9c-0.801-28.5-2.601-56.801-2.2-85.4c0.899-6.2-0.5-12.6,0.5-18.8c0.399-2.4,0.1-5,1.7-6.5
				c0.3,1.1,0.699,2.2,1,3.3c-0.4,31.3,0.199,62.6,1,94C210.1,269.2,209.9,273.9,207.9,277.9z"/>
			<path fill="#BDF6B8" d="M223.8,104.8c1.5,0,2.9,0,4.4,0c1.2-1,2.5-1.8,3.899-0.6c1.2,8.8-3.5,10.3-6.8,13.5
				c-0.6,0.2-1.1,0-1.6-0.5c-2.101-1.9-4.3-3.8-6.4-5.6c-2.5-2.2-1.5-4.2,0.2-6.1C219.5,101.7,221.6,102.3,223.8,104.8z"/>
			<path fill="#2F4658" d="M223.8,117.3c0.4-0.1,0.7-0.2,1.101-0.3c4.899,0.4,8.6,5,12.5,8.9c1,1.9,2.5,3.5,1.399,6.4
				c-0.8,2.1-1.6,4.1-2.3,6.2c-3.8-1.3-4.6-9.4-8.8-9.8c-1.3-1.4-2.5-3.1-4-4C219.6,121.8,222.4,119.6,223.8,117.3z"/>
			<path fill="#0C3662" d="M227.6,128.7c5.7-2.8,7.2,3.6,8.801,9.8c0.8,1.8,1.699,3.6,2.5,5.4c-0.2,0.3-0.301,0.5-0.5,0.8
				c-2,2-4.2-1-6.2,0.9c-0.4,0.3-0.9,0.5-1.4,0.6c-1.6-0.2-2.7-1.6-3.8-3.2c-0.8-1.5-1.5-3.2-1.1-5.3
				C228.8,135.7,229.9,133,227.6,128.7z"/>
			<path fill="#742834" d="M226,137.7c0.7,1.5,1.4,2.9,2.2,4.4c-1.101,7.6-2.601,9.3-7.3,8.3c-1.101-5-2.101-10-3.2-14.9
				c2.6-4.4,4.7-0.8,6.899,1.2C225,136.9,225.5,137.3,226,137.7z"/>
			<path fill="#0F0E27" d="M223.8,104.8c-2.1,0.2-4.2,0.4-6.3,0.7c-1.1-0.1-2.2-0.2-3.3-0.3c-1.7-1.9-0.3-2.6,0.5-3.6
				c5,0,9-4.9,13.8-6.6C228.4,100.1,223.8,99.8,223.8,104.8z"/>
			<path fill="#BBC3C2" d="M224.6,136.6c-2.3-0.4-4.6-0.8-6.899-1.2c-0.3-0.5-0.7-1-1-1.5c-0.3-2.9-0.601-5.9-1-9.6
				C219.8,127,222.1,131.9,224.6,136.6z"/>
			<path fill="#754250" d="M220.9,150.3c3-1.5,5.5-4.1,7.3-8.3c1.1,1.2,2.1,2.4,3.2,3.6c2.1,2.5,2.6,6,2.5,9.9c-0.4,4.8-2,8.3-5,9.4
				c-3.2,1.2-4.601-2.7-6-6.2C222.2,155.9,221.5,153.1,220.9,150.3z"/>
			<path fill="#5C3349" d="M222.9,158.7c5.8,6.5,6.699,6.2,9.6-3.4c3.7,2,3.2,7.1,3.2,11.5c0,3.6-1.5,5-4,4.3
				c-0.601-0.2,0.3,2.3-0.4,3.3c-3.2,3-4.6-1.4-6.399-3.9h0.1c-0.3-1.1-0.7-2.3-1-3.4C223.6,164.3,223.2,161.5,222.9,158.7z"/>
			<path fill="#1E2924" d="M202.7,130.7c1.399-6.5,4-12.1,4.899-19.9c1.4,2.5,2.301,4.2,3.2,5.9c-0.7,7.5-1.5,15-2.2,22.5
				c-1.1,2.3-0.6,5-0.8,7.5c-1.7,4.2-0.6,9.3-1.8,13.7c0.5,8.6,1.4,17.4-2.2,25.2c-1.2,0.7-1.8-0.4-2.3-1.7c-1.4-4.9-1.2-9.9-0.8-15
				C201.1,156.1,202.2,143.4,202.7,130.7z"/>
			<path fill="#F4BD7C" d="M203.4,185.7c0.899-8.4,1.699-16.8,2.6-25.2c1.1,1.9,1.9,4,2,6.7c0,6.2-0.1,12.5-0.1,18.7
				c0,2.7,0.199,5.6-2,6.6c-0.7-2.1-1.4-4.2-2.101-6.2L203.4,185.7z"/>
			<path fill="#0D3AA5" d="M38.6,112c0.9-7.9,4.1-9.6,8.7-8.7c1.7,0.4,3.5-0.1,5.3-0.2l-0.1,0.7c1.5,1.9,1.8,4.6,2.1,7.3
				c0.3,3,0.9,6.4-0.7,8.6c-2,2.7-3.5-0.5-5-2c-1.2-1.2-2.2-1.4-3.3,0c-2.8,2.7-4.6-1.2-6.8-2.5l-0.2-0.2
				C38.1,113.9,38,112.8,38.6,112z"/>
			<path fill="#06DACD" d="M80.7,35.2c-0.9,8.2-8,18.7-14.9,23.3C69.5,52.7,75.2,43.7,80.7,35.2z"/>
			<path fill="#057EBA" d="M38.6,112c-0.1,1-0.2,2-0.2,3c-1-1.6-2-3.1-3-4.7c0.1-3.2-0.2-6.6,2.1-8.4
				C37.7,105.2,37.5,108.8,38.6,112z"/>
			<path fill="#0764B8" d="M72.6,103.8c-2.6-0.2-3.3,1.8-2.7,5.6c0.6,4.2,2.1,8.1,1.6,12.6c-2.2,0-2.8-2.8-3.5-5.2
				c-1.8-6-3.9-10.9-8.7-10.9c-1,0-2-0.9-2.6-2.5c7.7-9.9,13-23.2,20.2-33.7C76,81.3,75.3,92.9,72.6,103.8z"/>
			<path fill="#061159" d="M56.7,103.4c9.6-3.1,11.9,8.4,14.8,18.6c0,0.4,0.1,0.9,0.1,1.3c-0.4,5.9-2.9,9.7-5.4,13.6
				c-1.8,1.6-3.2-0.8-4.8-1.3c-1.7-1.3-3.1-3.2-4.4-5.4c-1.4-2.5-2.3-0.7-3.4,0.6c-3.1,0.9-4.3-3.5-6.4-5.6
				c-1.2-2.5-3.2-4.4-2.2-8.3c0.2-2-0.7-4.8,1.1-5.8c1.3-0.7,2.1,1.6,3,2.8c1.2,1.6,2.3,3.3,4.2,6.1c-0.3-6.4-0.6-11.4-0.8-16.3
				C53.9,103.6,55.3,103.5,56.7,103.4z"/>
			<path fill="#587E3B" d="M203.4,185.7l0.3,0.6c-2.101,9-2.601,18.5-3.5,27.8c-0.3,0.101-0.5,0.101-0.8,0.2c-3.3-6.5-3-14.5-3.9-22
				c-1.6-4.4-1-8.9-0.4-13.4c3-0.6,5.1,2.3,7.3,4.9C202.7,184.5,203.1,185.1,203.4,185.7z"/>
			<path fill="#CD5023" d="M205.9,328c-0.101-8.9-0.2-17.7-0.2-26.6C207.9,310.3,207.3,319.1,205.9,328z"/>
			<path fill="#98E592" d="M83.1,175.6c0.8,6.7,5.2,9.8,6.6,15.9c-3.2-4.5-6.4-9-9.7-13.5c-3.4-6.7-8.4-11.4-11.1-19.2
				c0.2-1.3,0.6-2.2,1.6-1.9C74.7,163.2,78.9,169.4,83.1,175.6z"/>
			<path fill="#09AD8C" d="M69.5,158.9c3.1,6.9,8.2,11.1,10.6,19.2c-4.3-5.9-8.6-11.9-12.9-17.8c-2.6-5.4-7-7.6-9.4-13.3
				c-0.6-1.5-0.9-3-0.3-4.7c0.6-0.8,1.4-1.4,1.9-0.6C62.5,147.7,67.3,151.4,69.5,158.9z"/>
			<path fill="#3B3235" d="M69.7,143.7c0.7,0.6,1.3,1.2,2,1.8c0.7,1.1,1.4,2.2,2.2,3.2c8.1,10.8,14.7,24,23.2,34.2
				c1.4,1.6,2.3,4.1,3.4,6.2c-1.8,6.3-3.6,1.3-5.4-0.1c-8.5-15.6-18.7-28.6-26.7-44.9C68.7,142.9,69.1,142.8,69.7,143.7z"/>
			<path fill="#0B1336" d="M53.6,130.2c0.2-2.3,0.4-4.7,0.6-7.5c2.8,3.9,5.4,7.4,8,11c1.9,3.1,5,4.7,5.1,9.9
				c-1.8,0.8-3.5-2.3-5.3-0.3c-2.5,1.4-3.3-3.9-5.6-3.4c-0.7-0.6-1.2-1.4-1.7-2.3C54.1,135.3,52.4,133.3,53.6,130.2z"/>
			<path fill="#6ED498" d="M56.8,138.8c2.6-1,3.4,3.5,5.3,4.6c2.8,4.5,5.7,9.1,8.5,13.6c-0.4,0.6-0.7,1.2-1.1,1.9
				c-3.9-5.8-7.8-11.6-11.7-17.3C57,141,56.5,140.2,56.8,138.8z"/>
			<path fill="#487284" d="M67.3,143.7c-1.7-3.3-3.4-6.6-5.1-9.9c1.3,1.1,2.7,2.2,4,3.2c1.1,2.3,2.3,4.5,3.4,6.8
				c-0.4,0.1-0.9,0.2-1.4,0.4C68,143.9,67.7,143.7,67.3,143.7z"/>
			<path fill="#E96C2D" d="M175.1,241.2c-0.5,3.399,1.6,5.2,2,8.1c0.9,3.7,0.1,4.8-2.2,3.5c-0.3-0.1-0.5-0.1-0.8-0.1
				c-4.8-9-7.6-20.101-12.4-29.101c-1.1-2.6-2.5-4.899-3.4-7.8c-5.4-13.5-10.6-27-16.3-40.2c-1.2-12.3-6.8-21.1-10.3-31.6
				c-3.5-10.6-8-20.4-11.5-31.1c-1-3.2-2.4-6.4-0.8-10.1c0.9-1.2,2-1.8,3.2-1.7c1.2-0.1,2.3,0,3.4,0.9c2.8,2.9,3.7,7.7,4.7,12.3
				c-0.1,7.8,3.1,13.4,5.3,19.7c10.7,31.3,22.8,61.3,34.2,91.9c1.4,3.8,1.7,8.5,3.8,11.8C174.3,238.9,174.7,240,175.1,241.2z"/>
			<path fill="#F78B34" d="M184.9,105.2c-0.9,6.7-1,13.6-2.6,20.1c-4.1,0.6-4-5.9-6.6-9.1c-1.1,1.8-1.2,5.4-3.1,6.4
				c-2.4,1.4-2.3,4.5-1.9,7.6c0.6,5.2,0.9,10.5,0,15.7c-0.2,0.8-0.6,1.6-1,2.2c-1.3,1.4-2.7,2.1-4.2,0.6c-3.5-6.4-2.6-14.6-3.7-22
				c-0.8-5.1-1-10.4-1.4-15.6c-0.2-3,0-6.1,1.5-8.5c2.1-2.7,4.4-1.9,6.7-1.4c3.3,1,6.7,0.2,10,0.5
				C180.9,101.9,183.3,101.8,184.9,105.2z"/>
			<path fill="#8EA758" d="M182.3,130.1c2.6-2.6,5.2-5.3,8.7-8.7c-2.7,16.2-5.2,30.9-7.7,45.7c-2.6-4.3-5.8-1.3-8.7-1.7
				c-2.7-7-3-14.5-2.2-22.3C174.3,136.2,177.1,130.7,182.3,130.1z"/>
			<path fill="#F3A442" d="M173.9,237.7c-4.4-5.4-6.4-13.4-9.1-20.601c-11.4-31.1-23.7-61.399-34.2-93.2c-1-3.1-1.7-6.1-1.4-9.5
				c2.4-0.1,3.2,3,4.2,5.5c3.4,8.5,6.2,17.4,9.8,25.7c2.7,9.5,6.4,18,9.6,26.9c2.1,6.6,4.2,13.1,7.3,18.6c4.1,8.101,5.3,18.9,9.5,27
				c1.8,4,3.4,8,3.3,13.101C173.2,233.4,173.6,235.5,173.9,237.7z"/>
			<path fill="#FAA73D" d="M182.3,130.1c-2.9,4-5.9,8-8.8,12c-1,1.9-1.7,4.8-4,3.3c0.5-7-1-13.7-1-20.6c0-2.7-0.7-6.6,3-4.5
				c2.4,1.4,2.3-2.2,1.8-4.7c-0.4-2.4-0.3-5,1.1-5.8c1.7-1,2.1,2.3,2.9,3.8c1.9,3.6,2.1,8.9,4.9,11.6
				C182.3,126.9,182.3,128.5,182.3,130.1z"/>
			<path fill="#8CF19F" d="M169.6,145.4c1.3-1.1,2.6-2.2,4-3.3c0.4,8,0.6,16,2.3,23.7c3.2,5,2.7,11.6,2.9,17.8
				c0.1,4.6,0.3,9.3-0.4,14c-0.3,4.7-0.9,9.4-2.3,13.601c-2.1-0.3-2.3-2.7-2.6-5.2c-2.1-16.2-3.1-32.7-5.2-48.9
				c-0.5-3.6-0.2-7.2,1.2-10.3C169.4,146.3,169.5,145.8,169.6,145.4z"/>
			<path fill="#A7F5E9" d="M184.9,105.2c-5.3-0.4-10.6-0.7-15.8-1.1c-0.2-2.3-1.7-4.1-1.4-6.7c0.9-5.1,2.6-9.2,6.1-10.8
				c6.6,0.8,11.6,7.6,17.3,11.5c1.4,1.7,3.4,2.9,2.8,6.8C190.9,105,187.9,105.1,184.9,105.2z"/>
			<path fill="#CCDB6C" d="M169.3,146.7c1.9,21.6,3.1,43.3,6.6,64.399c0.3,3.5-0.8,6.5-1.2,9.801c-3.3,3.899-3.2-0.801-3.5-3.601
				c-1.3-10-2-20.2-3.2-30.2c-0.7-5.7-1.2-11.5-2.2-17.1c-1.3-6.1-1-12.5-1.2-18.8c0.2-1.4,0.5-2.6,1.6-2.5
				C167.3,148,168.3,147.4,169.3,146.7z"/>
			<path fill="#798C4B" d="M178.3,197.5c-0.8-10.6-2.4-21-2.5-31.7c0.6-3.9,2.6-5.6,4.6-5.7c2.7-0.1,1.2,5.3,2.8,7
				C181.6,177.2,180,187.4,178.3,197.5z"/>
			<path fill="#7ABE59" d="M202.7,130.7c2.1,8.5,0.7,17.2,0.7,25.8c0,4.1-0.601,8.2-0.9,12.3c-6.1,1.5-6.9-0.3-5.4-12.2
				C198.9,148,200.8,139.3,202.7,130.7z"/>
			<path fill="#B58F3E" d="M167.4,168.1c2.5,16.3,3.6,33.1,5.4,49.6c0.2,1.899-0.1,4.2,2,3.1c0,3.7-0.8,7.101-1.8,10.3
				c-1.5-4-3.1-8-4.6-11.899c0-0.5,0.1-0.9,0.1-1.4c-0.5-11.899-2.1-23.5-2.7-35.3c-0.2-4.1-0.6-8.3,0.4-12.3
				C166.4,169.4,166.8,168.7,167.4,168.1z"/>
			<path fill="#6A9F49" d="M197,156.6c-0.3,6.4,0.6,11.5,5.4,12.2c0,5-0.101,10-0.101,15.1c-2.4-0.6-6,2.5-6.2-4.9
				c-2.1-6.1-0.8-12.3-0.1-18.5C196.4,159.1,196.7,157.9,197,156.6z"/>
			<path fill="#13A9DA" d="M193.9,104.8c-1.2-1.5-2.3-3-3.5-4.6c-0.1-3.3,0.3-6.1,2.7-7c5.3,3.9,10.6,7.8,15.8,11.7
				c-1.101,0.2-2.101,0.4-3.2,0.7c-1.2,1.1-2.4,1.5-3.5-0.2C199.4,105.2,196.7,105,193.9,104.8z"/>
			<path fill="#359A7D" d="M196.1,160.4c0,6.2,0.1,12.3,0.1,18.5c-1.7,4.3-0.8,8.9-0.7,13.5c-0.1,6.1-0.3,12.199-0.4,18.3
				c-0.4,0-0.8,0-1.1,0c0.1-13.4,0.1-26.8,0.2-40.2C194.1,166.8,194.6,163.4,196.1,160.4z"/>
			<path fill="#DCA240" d="M202.2,105.4c1.2,0.1,2.3,0.1,3.5,0.2c-2.2,6.5-4.4,13-6.6,19.5C198.7,117.8,200.5,111.6,202.2,105.4z"/>
			<path fill="#0A4953" d="M56.8,138.8c0.3,0.9,0.7,1.8,1,2.8c0,1.8,0,3.6,0,5.4c-1.7-2.2-3.5-4.5-5.2-6.7
				c-4.7-4.5-8.5-10.3-10.7-18.4c-1.1-2.2-2.2-4.5-3.2-6.7c2.4-2,4.1,2.8,6.4,1.7c1,2.1,2.1,4.1,3.1,6.2c1.7,5.6,5.5,8.4,7.3,13.8
				C55.9,137.5,56.3,138.1,56.8,138.8z"/>
			<path fill="#55789E" d="M41.9,121.9c4,5.4,7.3,12,10.7,18.4c-0.4,0.6-0.8,1.2-1.2,1.8c-4.1-6.3-9.1-11.1-12.7-18.2
				C39.8,123.5,41.1,123.6,41.9,121.9z"/>
			<path fill="#0B45AA" d="M140.8,39.6c-2.6,0.3-4.3,3.6-6.6,4.9c-3-0.8-6.6,1.5-8.3-4.8c3.2-10.2,6.4-20.3,9.7-30.5
				c2.8-9,2.9-9,7.3-2.3c1.3,1.9,2.4,4.1,4.3,4.4c3.3,3,7.4,4.5,8.3,11.7c0,1.7-0.4,3.2-1.1,4.6C150.1,32.2,146.4,38.6,140.8,39.6z"
				/>
			<path fill="#F73F2D" d="M154.8,22.9c-2-4.7-5.9-6.4-7.6-11.7c7.2-1.8,14.3-3.6,21.5-5.4c3.9-1.5,6.8,2.7,10.2,4.2
				c-1.1,6.3-5.2,5.2-7.8,8c-0.7,0.5-1.4,0.7-2.2,1.1c-2.8,1.6-5.5,3.6-8.5,4.7c-1.5,0.7-3,1.4-4.5,0.6
				C155.5,24,155.1,23.5,154.8,22.9z"/>
			<path fill="#062161" d="M125.9,39.7c2.5,2.7,6.1,0.7,8.3,4.8c-1.7,1.8-3.4,3.5-5.1,5.3c-4.1,2.6-6.8-1.3-9.7-4.7
				c-0.4-0.6-0.7-1.2-1.1-1.9c1.2-3.6,3.4-3.6,5.5-3.7C124.6,39.5,125.2,39.6,125.9,39.7z"/>
			<path fill="#FBCC70" d="M184.5,7c1.7-1,3.4-2,5.2-3.1c3,2.1,2.6,6.8,3.2,10.8c-0.1,2,0.3,3.8,0.7,5.7c2.1,10.9,0.3,14.7-7,14.5
				c-0.9,0-1.8,0.1-2.6,0c-5.6-3.9-6.6-8.3-3-15.4C182.9,15.7,182,10.2,184.5,7z"/>
			<path fill="#FAE896" d="M184.4,33.2c0.6-1.2,1.4-1.1,2.3-1c6,0.5,7.6-2.6,6-11.3c-0.4-2.1-1.2-4.1,0.1-6.2
				c0.8,2.7,1.6,5.4,2.4,8.1c1.4,7,2.7,14.2,5.399,20.4c-0.5,3.8-0.899,7.7-1.399,11.5c-0.3,0.1-0.6,0.2-0.8,0.2c-1,0.9-2,0.6-3,0.1
				c-2.1-1.5-3.9-3.6-5.7-5.9c-1.6-2.1-5.2-3.7-1.8-8.7c0.6-0.8-0.6-0.9-0.9-1.1C185.4,38.1,184,36.7,184.4,33.2z"/>
			<path fill="#F78E4E" d="M184.4,33.2c2.6,3.3,5.1,6.7,8.7,11.4c-2.6-1.4-4-2.1-5.3-2.8c-0.2,0.4-0.3,0.7-0.5,1.1
				c2.9,3.5,5.8,7,8.7,10.4c2.2,4.7,0.7,8.2-1.4,11.6c-1.6,1.2-2.6-0.4-3.6-1.9c-5.5-11.1-10.5-22.8-16-34c-0.8-4.8-5-6.8-4.2-12.9
				c2.1-3.9,5.5-3.5,8-6.2c1.9-1,3.7-2,5.6-3c0,3.6,0.1,7.3,0,10.9c0,1.3-0.2,3-0.7,3.8C179.2,28,179.2,28.8,184.4,33.2z"/>
			<path fill="#F9B280" d="M194,64.7c0.2-4,2.5-7.1,2-11.4c0.8,0.6,1.6,1.1,2.4,1.7c-0.1,5.8-0.7,11.5-2.2,16.9
				c-0.2-0.1-0.4-0.3-0.7-0.4C194.5,69.6,192.9,67.9,194,64.7z"/>
			<path fill="#DEEF84" d="M194.1,80.1c-1.6-2.5-3.6-4.5-4.5-8.1c-0.1-2.7,0.5-4.8,2.1-6c2.5,0,2.8,4.1,4.5,5.6v0.3
				C195.5,74.6,194.8,77.4,194.1,80.1z"/>
			<path fill="#150808" d="M143,174.1c5.5,13.6,11.4,26.9,16.1,41.3c0.6,1.8,0,2.1-1,1.899c-1.1-2.399-2.2-4.7-3.4-7.1
				c-7.2-19.5-15.3-38-23.2-56.7c-7-16.6-14.3-33-21.5-49.5c1.5-0.1,2.9-0.1,4.3-0.2c2.6,2.2,4,6.1,5.6,9.8
				c7,17.3,13.5,35,20.6,52.3C141.6,168.5,141.6,171.8,143,174.1z"/>
			<path fill="#50160F" d="M162.2,222.3c5.2,9,8.2,20,11.9,30.4c-5.2-7.5-8.7-16.9-12-26.601C161.5,224.8,161.4,223.5,162.2,222.3z"
				/>
			<path fill="#D1612A" d="M174.8,252.8c1.3-0.2,2-1.5,2.2-3.5c1.4,5.5,2.7,10.9,4.1,16.4c0,0.2-0.1,0.6-0.2,0.6
				c-0.3,0-0.6-0.1-0.9-0.2C179,261.1,175.2,258.6,174.8,252.8z"/>
			<path fill="#210906" d="M162.2,222.3c0,1.3-0.1,2.5-0.1,3.8c-1.9-2.199-2.9-5.5-4.1-8.699c0.3-0.601,0.7-1.301,1-1.9
				C160.1,217.7,161.1,220,162.2,222.3z"/>
			<path fill="#3D6474" d="M108.9,41.6c-1.1-2.3-2.1-4.7-3.2-7c0.4-0.7,0.7-1.4,1.1-2.1c0.3,0.2,0.6,0.2,0.9,0.1
				c0.8,0.7,1.6,1.3,2.4,2C110.1,37.1,110.6,39.8,108.9,41.6z"/>
			<path fill="#0B4FB0" d="M193.1,93.3c-1.2,2-0.8,5.6-2.7,7c-5.5-4-11-8-16.5-12c-4.7-0.7-9.1-2.4-12.4-8.4
				c-0.5-2.9-1.4-5.2-2.8-7.4c-1.3-2.1-3.2-4.4-1.8-8.2c2.7-2,3.3,2.9,5.1,3.7C172.5,76.4,182.8,84.8,193.1,93.3z"/>
			<path fill="#06DAED" d="M162.1,68c-1.8-1-3.5-2-5.3-3c-4.2,1.5-6.9-1.7-9.1-6.8c-0.3-3.9,0.4-6.8,2.9-8.3
				c3.2-1.9,5.8,5.1,9.1,1.6c2.9-1.2,5.1-0.6,5.6,4.9c-1.2,1.1-2,2.6-2,4.9C163.4,63.8,161,65.1,162.1,68z"/>
			<path fill="#03C4C8" d="M165.3,56.4c-1.6-1.9-3-4.4-5.3-3.3c-0.8,0.5-1.5-0.1-1.7-1.1c-0.6-5-1.6-9.5-4.9-11.1
				c-0.4,2.8-0.4,7-2,10.5c-2.5,0.8-2.2,4.6-3.1,7.2c1.8,4.7,0.1,9-0.6,13.5c0.1,7.7-1.5,14.6-4.1,21.1c-1.7,4.3-3.7,5.8-6.5,2.4
				c-5-3.4-7.6-10.8-11.2-16.5c-0.8-1.7-0.8-3.5-0.3-5.4c-2.9-4.6-0.5-7,1.6-9.6c5.4-6.9,10.8-13.8,13.4-24.4
				c3.8-5.6,8.5-9.1,12.8-13.7c3.9,3,7.4,6.6,8.3,13.9c-1.7,3.5,0.5,4.5,1.6,6.4c2.8,5,7,8.2,8.2,15.3
				C169.5,59.8,167.4,58.1,165.3,56.4z"/>
			<path fill="#F8F656" d="M191.7,67c-0.7,1.7-1.5,3.3-2.2,5c-2,0.2-2.3-3.6-4-4c-3.1-5.5-6.5-10.3-10.2-14.8
				c-5.3-5.6-10.1-12-14.3-19.6c-0.6-3.9-2.6-7.4-1.1-11.7c2.8-1.7,5.5-3.4,8.3-5c4.1,2.7,5.4,9.5,8.3,14
				c4.7,10.8,9.7,21.3,14.7,31.7C192,63.9,191.9,65.4,191.7,67z"/>
			<path fill="#0C7AB4" d="M162.4,32.9c4.3,6.7,8.7,13.5,13,20.2c-5.3-2.4-8.7-9.6-13.5-13.3c-2.9-4.5-6.2-8.4-8.3-13.9
				c0.4-1,0.8-2,1.2-3c0.3,0,0.6,0.1,0.9,0.4C159.3,24.1,160.4,29.3,162.4,32.9z"/>
			<path fill="#B1B095" d="M237.9,73.7c-3.301,4.8-7,8.4-10.9,11.9c0.7-1.8,1.4-3.6,2.1-5.5c2.5-3.5,4.9-7,7.4-10.4
				C238.5,69.8,238.3,71.6,237.9,73.7z"/>
			<path fill="#116387" d="M288.6,96.6c-0.1-1.7-0.1-3.5-0.199-5.2c0.399-2,1.3-3.5,2.399-4.6c0.101,4.1,0.101,8.2-1,12
				c-0.3,1-0.6,1-0.899,0.1C288.7,98.3,288.7,97.5,288.6,96.6z"/>
			<path fill="#9B958E" d="M253.8,57.1c-3.6,3.8-7.1,7.6-10.7,11.4c-2.5-0.4-2-2.8-1.3-5.1c0.601-2,1.601-3.5,2.2-5.4
				c2.1-3.5,4.2-7,6.2-10.4c1.2-0.8,2.3-1.7,3.5-2.5C253.3,49.1,250.3,53.2,253.8,57.1z"/>
			<path fill="#947667" d="M244,58c0.5,3.7-3.3,6.5-0.9,10.6c-1.399,2.5-3.3,4-5.3,5.2c-0.2-1.6-0.3-3.2-1.399-4
				C239,65.8,241.5,61.9,244,58z"/>
			<path fill="#0762A4" d="M232.7,105.5c-1.5-0.2-3-0.4-4.4-0.6c8.7-7.8,17.4-15.8,27.4-18.9c1.6-0.5,3-2.7,4.399-4.2
				c2.9-2.1,2.801,1.6,1.9,3.4c-2.6,6-3.3,13.3-6,19.1c-1.5,1.6-3.1,1.8-4.7,0.8c-1.8-6.9-3.399-0.9-5.1,0.3
				c-1,0.8-1.9,1.8-3.101,2.1C239.6,108.2,235.9,109.9,232.7,105.5z"/>
			<path fill="#053775" d="M255.7,103.5c0.3-6.7,1.399-12.9,4.5-17.9c0.6-1,2.5-2.7-0.101-3.8c1.301-2.9,3.4-3.7,5.301-5.1
				c2.399,4.9-0.9,8.1-1.9,11.3c-1.6,5.1-2.6,9.9-2.4,15.5C259.3,106.2,257.5,106.2,255.7,103.5z"/>
			<path fill="#110D16" d="M272.4,102.2c-1.301,0.5-2.601,1.1-4,1.6c-1.5,2.5-3.2,3.1-5.101,1c3.5-9.9,10-15.3,14.8-23.3
				c2.9,2.2,3.4,6.1,3.2,10.6C279.8,98.9,276.7,101.8,272.4,102.2z"/>
			<path fill="#DDB696" d="M272.4,102.2c3-3.3,5.899-6.6,8.899-9.9c2,4.4,1.4,8.1-1.2,11.3c-1.399,0.1-2.8,0.3-4.3,0.4
				C274.7,103.3,273.6,102.7,272.4,102.2z"/>
			<path fill="#57B16E" d="M263.4,104.9c1.699-0.3,3.399-0.7,5.1-1c1.6,5.2,0.4,9-2.6,11.6c-2.9,2.4-5.9,4.6-8.9,6.9
				c-2-1.3-2.7-4.3-3.4-7c-0.899-3.8-2.6-4.9-4.899-4.5c-1.101-0.6-1.601-2.5-2.7-3.2c-0.9-0.5-1.7-1.2-2.1-2.7
				c0.6-0.5,1.3-1,1.899-1.4c1.601-1.3,3.101-2.1,4.601,0.2c1.699,0,3.5-0.1,5.199-0.1c1.801,0,3.601-0.1,5.4-0.1
				C261.8,103.9,262.6,104.4,263.4,104.9z"/>
			<path fill="#083966" d="M261.1,155.4c-3.8-3.6-3.8,2.8-5.399,5.1c-2.7,1.5-4.3-1.5-6.101-3.5c-3-3.4-6-6.9-9-10.3
				c-0.6-0.9-0.899-2-0.8-3.3c0.2-3,1.4-5.2,2.5-7.2c2.7-4.9,5.8-6.2,8.9-0.5c3.3,6,6.6,12,9.899,18
				C261.1,154.3,261.1,154.9,261.1,155.4z"/>
			<path fill="#6ACC77" d="M248.4,110.3c2.8-5.5,5-6.3,6.199,1.9c0.5,3.5,1.601,6.7,2.4,10.1c-4.1,4.8-8.3,9.7-13.8,5.4
				C242.2,119.9,244.1,113.4,248.4,110.3z"/>
			<path fill="#A7AE61" d="M248.4,110.3c-1.7,5.8-3.5,11.6-5.2,17.4c-1.101,2.4-2.3,4.7-4.4,4.7c-0.7-1.7-1.5-3.4-2.2-5.2
				c-1.3-7.3,1.801-16.7,6.7-19.6c1.3-0.8,2.7-1,4-2C250,105.6,248,108.7,248.4,110.3z"/>
			<path fill="#37BCA6" d="M239.8,143.5c0.4,0.6,0.8,1.3,1.2,1.9c2,4.3,2.1,8.3-0.9,11.6c-0.199,2.1-0.399,4.1-0.6,6.2
				c-0.3,3.9-0.3,7.6,0.7,11.5c1.1,4.5,1,9.3-0.7,13.7c-0.4,0.9-1,1.1-1.6,0.7c-0.101-4.1-0.101-8.1-0.2-12.2
				c-3.8-5.4-0.8-12.4-1.8-18.5c0.5-5-0.5-10.8,2.899-14.5l0.2,0.1C239.2,143.8,239.5,143.6,239.8,143.5z"/>
			<path fill="#FAA85F" d="M238.6,189c1-8.6-0.6-17.3,0.9-25.8c-0.6,6.9,1.7,10.6,5.6,12.5c0.5,4,0.801,8.1,1.4,12.1
				c1.6,12.2,0.4,14.5-7.7,14.5C237.8,197.9,238.1,193.4,238.6,189z"/>
			<path fill="#142136" d="M240.1,157c1.101-3.7,0.5-7.8,0.9-11.6c5.9,2.8,9.6,10.6,14.8,15.2c1.8,2.1,3.5,4.3,5.3,6.4
				c-1.699,0.3-2.3,3.9-4.3,3.6C251.2,166.1,245.6,161.5,240.1,157z"/>
			<path fill="#41A7AA" d="M238.6,189c0.101,4.4,0.101,8.9,0.2,13.3c-0.3,2.3-0.7,4.601-1,6.9c-1.2-6.8,0.4-13.5,0.2-20.2
				C238.1,189,238.3,189,238.6,189z"/>
			<path fill="#55DDD1" d="M224.9,170.5c2.399,0.3,4,4,6.5,3.5c2.399-0.5,4.199,0,3,5c-1,6-2,12-3.5,20.6
				C228.6,188.4,226.7,179.4,224.9,170.5z"/>
			<path fill="#260E2A" d="M234.4,179c0.1-3.3-1.9-3.4-3-5c-0.7-1.5-1.4-2.9-2.101-4.4c6-0.9,6.101-1.2,3.2-14.3
				c-0.4-3.2-0.8-6.4-1.1-9.7l0.1-0.2c2.9-0.7,4,2.5,4.8,5.9c0.601,2.3,0.101,5,1.4,6.9c0.3,6.2-1,12.3,0,18.5
				c-0.5,0.8-0.9,1.7-1.4,2.5c-0.2,0.7-0.5,0.9-0.899,0.8C235,179.7,234.7,179.4,234.4,179z"/>
			<path fill="#55DDD1" d="M235.4,180.1c0.3-0.3,0.6-0.5,0.899-0.8c-0.899,11.5,0.101,23.3-1.899,34.601
				c-2.101-5-2.301-10.2-1.301-15.9C234.1,192.2,234.6,186.1,235.4,180.1z"/>
			<path fill="#C79461" d="M143,174.1c-1.9-0.3-2.2-3.1-3-5c-8.6-21.7-17.1-43.5-25.7-65.2c0.7-0.2,1.4-0.4,2.1-0.7
				c1.1-0.9,2.2-1.4,3.1,0.5c3.5,14.1,9.2,26.3,14,39.3c2.8,7.4,4.9,15.5,8.5,22.2C143.5,167.8,142.7,171.1,143,174.1z"/>
			<path fill="#0B1D7D" d="M125.7,73.6c0.4,1.6,0.8,3.2,1.2,4.8c3.3,7.5,4.9,15.6,3.8,24.8c-0.4,0.8-0.8,1.4-1.4,1.7
				c-1.3,0.6-2.3-0.4-3.5-1c-0.9-0.2-1.9-0.5-2.8-0.7c-1.8-1.6-1.8-4-1.3-6.7c2.9-3.7,1.7-8.4,1.1-12.9c0.7-2.8,1.4-5.6,2.1-8.4
				C125.2,74.6,125.5,74.1,125.7,73.6z"/>
			<path fill="#0B88D0" d="M122.5,95.3c0.2,2.6,0.4,5.2,0.6,7.9c-1.2,0.2-2.3,0.4-3.5,0.6c-1-0.2-2.1-0.4-3.1-0.5
				c1.6-3.9,1.7-9.3,4.9-11.4C122.5,92.3,122.7,93.7,122.5,95.3z"/>
			<path fill="#05094A" d="M122.5,95.3c-0.4-1.2-0.7-2.3-1.1-3.5c-0.4-3.2,0.4-5.7,1.5-8.2c2.2,1.9,2.8,5.2,3.1,8.8
				C126.4,98.2,124.5,96.9,122.5,95.3z"/>
			<path fill="#084D9E" d="M119.4,45c3.2,1.5,5.9,5.9,9.7,4.7C124.8,53.7,121.8,50.8,119.4,45z"/>
			<path fill="#927F49" d="M247.2,105.5c-4.9,5.5-9.8,11.1-10.601,21.6c-4-3.2-8.399-5.1-11.699-10.2c2.6-3.8,5.199-7.7,7.8-11.5
				c3.7-0.2,7.5-0.4,11.2-0.6C245,105.1,246.1,105.3,247.2,105.5z"/>
			<path fill="#081746" d="M237.7,158.3c-3.3-2.8-2.5-10.5-6.2-12.9c-0.1-2.6-0.3-5.3,2.4-3.9c1.6,0.9,3.3,1.5,4.899,2.2
				C238.4,148.6,238,153.5,237.7,158.3z"/>
			<path fill="#498A7E" d="M55.5,136.8c-2.6-4.4-6.3-7.2-7.3-13.7c1.8,2.4,3.6,4.7,5.4,7.1C54,132.5,56.4,133.5,55.5,136.8z"/>
			<path fill="#482B26" d="M125.9,103.9c1.1,0,2.3,0.1,3.4,0.1c1.9,0.7,2.7,3.3,3.6,5.5c4.1,9.7,6.7,20.6,10.3,30.7
				c0.9,2.5,1.7,5.7-1.3,6.8c-4.2-10.9-8.4-21.8-12.7-32.6C128.1,110.9,127,107.4,125.9,103.9z"/>
			<path fill="#06ACD6" d="M137.7,93.4c2.5,3.5,3.6,1.9,5-2.3c2.1-6.3,2.7-13.1,3.6-19.9c1.9-1.2,3.8-3.8,5.9-0.8
				c1,4.8,3.2,8.1,5.6,11.2c3.7,5.3,8.3,9.4,10.5,17.1c-0.1,1.9,3.6,2.5,0.7,5.4c-2.3,0.1-4.7,0.3-7,0.4c-1.6,1.7-3.4,2-5.2,1.5
				c-2.7,0.1-5.3,1.3-8,0.1c-1.2-0.1-2.4,0-3.6-0.1c-0.9,0-1.8,0-2.7,0.2c-2.3,0.6-4.4,0.2-6.2-2.2
				C134.8,99.8,135.2,96.3,137.7,93.4z"/>
			<path fill="#F8EF68" d="M156.9,104c1.7,0.2,3.4,0.4,5.1,0.5c1.4,14.7,2.8,29.5,4.3,44.2c-0.3,0.7-0.6,1.4-0.9,2
				c0.1,2.5-0.9,3.9-2.2,4.9c-1.1,0.7-2.2,0.7-3-1c-1.6-6.8-1.4-14.2-2.7-21.1c-0.2-8.3-1.2-16.3-1.8-24.5
				C155.5,107,155.9,105.3,156.9,104z"/>
			<path fill="#CA9945" d="M168.3,219.3c-4.3-7.899-5.3-18.6-9.4-26.7c-2.3-6.8-4.7-13.5-7-20.2c-2-6.1-4.1-12.2-6.2-18.3
				c-1-3.1-2.3-6.4-1.1-10.1c1-1.4,2-0.8,2.9,0c2.5,3.6,4.1,8.3,5.5,13c1.1,3.6,2.6,6.4,4.7,8.7c4.1,17.5,10.5,33.7,11,53
				C168.6,218.9,168.4,219.1,168.3,219.3z"/>
			<path fill="#684E37" d="M144.7,143.4c2,10,5.4,19.1,8.1,28.7c0.2,1.7-0.2,2.2-1.2,1.7c-3.2-8.9-6.4-17.8-9.6-26.8
				c1.4-2,0.6-3.8-0.1-5.9c-4.2-12.4-8.4-24.8-12.6-37.2c0.3-0.3,0.6-0.5,0.9-0.7c0.7-0.8,1.4-1,2.2-0.5c3.8,6.2,5.4,14.6,8.4,21.6
				C141.9,130.8,145.2,136.1,144.7,143.4z"/>
			<path fill="#A57433" d="M151.5,173.8c0.4-0.6,0.8-1.1,1.2-1.7c2.4,6.6,5.4,12.7,6.2,20.5C155.7,187.1,153.5,180.5,151.5,173.8z"
				/>
			<path fill="#79DCE0" d="M168.3,98.8c-4.4-4-7.6-10.3-11.5-15.5c-1.2-2.8-1-5.2,0.7-7.4c2-1.3,3.5-0.5,4.6,2.4
				c3.5,4.6,8.4,5.1,11.9,9.9C171.1,90.5,170.1,95.2,168.3,98.8z"/>
			<path fill="#37988C" d="M163.3,154c0.7-1.1,1.4-2.1,2.1-3.2c2.1,5.4,0.5,11.8,2,17.4c-0.2,0.3-0.3,0.5-0.5,0.7
				c-2.1,0.1-3.1-1.9-3.9-4.6C162.8,160.8,161.4,157.3,163.3,154z"/>
			<path fill="#040307" d="M164.1,163.9c0.6,2.1,1.5,3.8,2.8,4.9c0.9,14.9,1.9,29.7,2.8,44.601c0.1,1.899,0.3,3.899-0.9,5.3
				c-3.6-17.8-9.2-34.5-12.1-52.7c-3.8-5.4-5.9-11.8-4.9-20c2.9-3.5,4.6,0.4,6.6,2.5c1.3,1.7,1.6,4.2,2.1,6.6
				C161.5,158.2,163.3,160.5,164.1,163.9z"/>
			<path fill="#A2412D" d="M175.8,31.3c-2.5-4.9-5-9.8-7.4-14.6c0.8-0.2,1.7-0.4,2.5-0.5c1.4,4.1,4.3,6.6,5.2,11.3
				C176.6,28.9,176.7,30.2,175.8,31.3z"/>
			<path fill="#4A6461" d="M162.4,32.9c-2.7-2.4-4.7-6-6.7-9.6c1.5-0.5,2.9-1,4.4-1.5C160.8,25.5,161.6,29.2,162.4,32.9z"/>
			<path fill="#251920" d="M175.8,31.3c0.1-1.3,0.2-2.6,0.3-3.8c5.3,11.4,10.7,22.9,16,34.3c-0.2,1.3-0.4,2.7-1.5,1.1
				C185.3,52.9,180.3,42.4,175.8,31.3z"/>
			<path fill="#496375" d="M190.6,62.9c0.5-0.4,1-0.7,1.5-1.1c0.7,1,1.3,1.9,2,2.9c0.4,2.5,2.4,3.8,2.2,6.9
				c-2.3,0.5-2.5-4.1-4.5-4.6C190.7,66.1,190.9,64.4,190.6,62.9z"/>
			<path fill="#0F34A5" d="M162.1,78.3c-1.3-0.7-2.7-1.4-4-2.2c-3.1,1.3-5-1.2-6.5-5c-1.8-2.7-3.5,3.4-5.3,0.1
				c0.7-4.3,1.4-8.5,2.1-12.8c2.8,2.1,5.6,4.3,8.4,6.4c1.5,2.6,3.1,5.3,4.6,7.9C162.2,74.5,163.7,75.9,162.1,78.3z"/>
			<path fill="#03A2CD" d="M151.5,51.3c-2.2-6.9,1.5-11.6,2.3-17.5c1,7.5,7.8,10.1,6.2,19.3c0.3,2,2.2,5.8-1.4,3.7
				C156.1,55.4,153.8,53.2,151.5,51.3z"/>
			<path fill="#06E4E2" d="M132.3,103.7c-0.7-0.2-1.4-0.3-2.2-0.5c-1.1-8.3-2.2-16.6-3.2-24.9c0.5-0.1,1.3-0.4,1.3-0.3
				c1.7,7.3,6.3,10.3,9.4,15.3c-0.4,3.2-0.8,6.5-1.3,9.7C135.2,105.6,133.8,105.3,132.3,103.7z"/>
			<path fill="#04ADC8" d="M250.4,103.6c-1.5-0.1-3.101-0.1-4.601-0.2c1.7-3.4,3.4-6.8,5.101-10.2c0.5,0.7,1,1.4,1.5,2.1
				C251.7,98.1,251.1,100.8,250.4,103.6z"/>
			<path fill="#7E3D2F" d="M132.3,103.7c1.4-0.2,2.8-0.4,4.1-0.6c2.2,0.2,4.4,0.3,6.6,0.5c3.6,4.1,2.7,11.8,5.2,16.7
				c1.6,2.8,0.7,7.2,2.5,9.9c1.8,4.7,2.6,9.6,1.4,15c0.8,7.3,2.1,14.3,4.5,20.7c-1.3,0.8-2.3,0.3-3-1.8c-2.2-6.2-4.4-12.4-6.6-18.6
				c-3.6-5.8-4.5-14.1-7.6-20.3C136.2,118.8,133.9,111.6,132.3,103.7z"/>
			<path fill="#061035" d="M152.2,145.3c-1.8-4.5-1.2-10.1-2.6-14.8c-1.2-8.8-3.5-17.6-1.1-26.7c2.8,0.1,5.6,0.1,8.3,0.2
				c0.1,1.7,0.1,3.4,0.2,5c-1.8,9.2,0.5,18,1.1,27c-0.3,4.8,1.7,9.8-0.6,14.5C155.8,148.7,154,147,152.2,145.3z"/>
			<path fill="#A69746" d="M148.5,103.8c0.4,8.9,0.7,17.8,1.1,26.7c-0.3,0.7-0.5,1.6-0.9,1.9c-0.9,0.7-1.3-0.2-1-1.5
				c0.7-3.3,0.5-6.3-0.7-9.1c-0.7-6-3.1-11.5-1.9-18C146.2,103.8,147.4,103.8,148.5,103.8z"/>
			<path fill="#34C8E5" d="M151.6,71.2c2.3,1.2,4.6,2.5,6.5,5c-0.4,2.4-0.8,4.7-1.2,7.1C154.2,80.2,151.2,77.6,151.6,71.2z"/>
			<path fill="#1B151A" d="M145.1,103.9c0.6,6,1.3,12,1.9,18c-2.1-5.6-3.1-11.9-3.9-18.2C143.7,103.7,144.4,103.8,145.1,103.9z"/>
			<path fill="#376F6C" d="M156.7,135.3c-1.4-7.4-1.3-15.1-2.1-22.6c-0.3-3.4,1.1-3.3,2.4-3.7c0.7,8.2,1.4,16.5,2.1,24.7
				c0.3,1.3,0.4,2.8-0.5,3.4C157.8,137.7,157.2,136.4,156.7,135.3z"/>
			<path fill="#5CA68F" d="M156.7,135.3c1.2,1.1,2.1,0.5,2.4-1.6c1.2,7,1.7,14.1,2,21.3c-0.3,0.8-0.7,0.9-1.1,0.3
				c-0.8-1.6-1.6-3.2-2.5-4.8C157.3,145.4,157,140.4,156.7,135.3z"/>
			<path fill="#06193E" d="M160.1,155.3c0.4-0.1,0.7-0.2,1.1-0.3c0.7-0.3,1.4-0.7,2.1-1c0.3,3.3,1.3,6.5,0.8,9.9
				C161.8,162.1,159.5,160.4,160.1,155.3z"/>
			<path fill="#C06437" d="M139.5,125.3c3.9,5.5,5.7,13,7.6,20.3c-0.8-0.7-1.6-1.4-2.4-2.2C142.2,137.9,140.9,131.5,139.5,125.3z"/>
		</g>
	</g>
	<path fill="#F8EF68" d="M210.5,388.2l-59.3-88.3c-2.7-7.2-4.5-13.2-8.2-17.2l0,0c-0.5-8.101-3-14.101-7.4-18.3
		c-4.7-7.2-9.4-14.5-14.2-21.7c-7.8-13.3-15.8-26.3-24.3-38.5c-0.1-0.4-0.1-0.8-0.1-1.2c0.8-4.8-3.7-6-3-10.7
		c0.3,0.101,0.6,0.2,0.9,0.4c4.3,6.7,8,14.2,12.9,19.899c3.2,4.5,6.3,9.101,9.5,13.601c2,4.3,4.7,7.399,7.7,9.6
		c-1.9-5-3.8-10-5.8-15c6-10.5,6-10.5-1.6-19.2c-2-2.3-3.9-4.8-5.8-7.3c-1.2-7.7-2.3-15.4-3.5-23.1c-0.4-2.6-0.9-4.9,1.4-5.7
		c10,16.2,19.9,32.4,29.9,48.6c9.3,15,18.5,29.9,27.8,44.9c2.7,5.3,5.4,10.5,8.1,15.8c4.4,12.4,6.5,27.601,16.2,33.5
		c0,1.101,1.1,2,0.1,3.2c-7-6.7-14-13.4-21-20.1c-0.3,0.8-0.7,1.6-1,2.399c7.2,10.101,15.8,16.9,24.1,24.3
		c1.4,4.601,2.8,9.2,4.2,13.801c0.9,7,2.7,13.399,4.5,19.899c-4.399,0.8-7.1-6.1-12.399-6.3c7.1,14.3,11.7,29.9,19.6,41.7
		C210.1,387.6,210.3,387.9,210.5,388.2z"/>
	<path fill="#7C1914" d="M267.1,300.7c-0.3,2.1-1.3,4.899,0.101,6.1c0.5,0.4,0.899,0.5,1.399,0.3L239.4,348.4
		c1.399-3.601,2.3-7.801,2.399-12.9c-0.1-1.8-1.1-3.8,0.2-5.4c5.7-6.699,7-18.8,13.6-25.199c4.601-4.4,7.301-14,10.9-21.2
		c0.9-1.8,1.7-5.5,3.4-3.9c1.6,1.5,1,5.3,0.199,7.601C268.5,291.5,267.8,296,267.1,300.7z"/>
	<polyline fill="none" stroke="#00BBEB" stroke-miterlimit="10" points="291.9,274.1 288.7,278.6 288.6,278.7 286.8,281.3 
		286.7,281.4 280.7,289.9 270.4,304.4 268.6,307.1 	"/>
	<path fill="#446030" d="M229,345.7c-1.3,4.3-1.5,8.2,2.3,9.399c-1.3,3.301-2.5,6.601-3.8,9.9l-14.9,21.1
		c0.601-1.899,1.101-3.899,1.601-5.8c-0.4-3.5,1.399-5.8,1.899-8.899c0.801-3.7,1.7-7.4,2.5-11.101c2.2-7.1,3.801-14.5,5.2-22.1
		c0.5-1.101,0.9-2.2,1.3-3.3l0,0l0,0c3.301,0.199,3.7-4.7,5.301-7.5c0.899-1.5,1.8-3.101,3.1-1.7c1.2,1.3,0.9,3.5,0.3,5.3
		C232.3,336,230.5,340.7,229,345.7z"/>
	<polyline fill="none" stroke="#00BBEB" stroke-miterlimit="10" points="210.5,388.2 210.5,388.3 210.8,388.7 212.7,386.1 
		212.7,386.1 	"/>
	<line fill="none" stroke="#00BBEB" stroke-miterlimit="10" x1="239.3" y1="348.4" x2="227.6" y2="365"/>
</g>
</svg>
